<?xml version="1.0" encoding="utf-8"?>
<!-- Generator: Adobe Illustrator 23.0.0, SVG Export Plug-In . SVG Version: 6.00 Build 0)  -->
<svg version="1.1"
	 id="svg384" inkscape:version="0.92.2 (5c3e80d, 2017-08-06)" sodipodi:docname="bbb-logo-big-brother-brasil-logo.svg" xmlns:cc="http://creativecommons.org/ns#" xmlns:dc="http://purl.org/dc/elements/1.1/" xmlns:inkscape="http://www.inkscape.org/namespaces/inkscape" xmlns:rdf="http://www.w3.org/1999/02/22-rdf-syntax-ns#" xmlns:sodipodi="http://sodipodi.sourceforge.net/DTD/sodipodi-0.dtd" xmlns:svg="http://www.w3.org/2000/svg"
	 xmlns="http://www.w3.org/2000/svg" xmlns:xlink="http://www.w3.org/1999/xlink" x="0px" y="0px" viewBox="0 0 1000 408.2"
	 style="enable-background:new 0 0 1000 408.2;" xml:space="preserve">
<style type="text/css">
	.st0{fill:#EF7C2C;}
</style>
<g>
	
		<path id="path29" inkscape:connector-curvature="0" inkscape:export-xdpi="35.687733" inkscape:export-ydpi="35.687733" class="st0" d="
		M673.6,185.1c0.7,0,2.2,0,3,0c3.7-13.4,5.9-26.8,5.9-41.6c0-12.6-1.5-24.5-4.5-35.7h-6.7c3,11.2,4.5,23,4.5,35.7
		c0,14.1-2.2,28.3-5.9,40.9C671.4,185.1,672.1,185.1,673.6,185.1L673.6,185.1z"/>
	
		<path id="path31" inkscape:connector-curvature="0" inkscape:export-xdpi="35.687733" inkscape:export-ydpi="35.687733" class="st0" d="
		M666.9,77.3c-2.2-4.5-5.2-9.7-8.2-14.1v11.9c0,0.7,0.7,1.5,0.7,2.2H666.9z"/>
	
		<path id="path33" inkscape:connector-curvature="0" inkscape:export-xdpi="35.687733" inkscape:export-ydpi="35.687733" class="st0" d="
		M402.2,120.4C413.4,55.8,469.9,5.9,538.3,5.9c38.7,0,72.9,15.6,98.1,40.9l6.7-2.2C617.1,17.1,579.9,0,538.3,0
		c-69.9,0-128.6,49.8-142,116C398.5,117.5,400.7,119,402.2,120.4z"/>
	
		<path id="path35" inkscape:connector-curvature="0" inkscape:export-xdpi="35.687733" inkscape:export-ydpi="35.687733" class="st0" d="
		M403,194.1c11.2,31.2,32.7,56.5,61,73.6c2.2-0.7,5.2-2.2,8.2-2.2c-22.3-11.9-40.9-30.5-53.5-52l0,0v-0.7
		c-4.5-7.4-8.2-15.6-11.2-23.8C405.9,190.3,404.5,192.6,403,194.1z"/>
	
		<path id="path37" inkscape:connector-curvature="0" inkscape:export-xdpi="35.687733" inkscape:export-ydpi="35.687733" class="st0" d="
		M575.5,277.3c-0.7,0-1.5,0.7-2.2,0.7c0.7,0.7,1.5,0.7,2.2,1.5V277.3z"/>
	
		<path id="path39" inkscape:connector-curvature="0" inkscape:export-xdpi="35.687733" inkscape:export-ydpi="35.687733" class="st0" d="
		M609.7,269.9c22.3-12.6,40.9-31.2,53.5-52.8c-2.2,0-4.5,0-6.7-0.7c-12.6,20.8-31.2,37.9-52.8,49.8h3.7h2.2v2.2V269.9z"/>
	
		<path id="path41" inkscape:connector-curvature="0" inkscape:export-xdpi="35.687733" inkscape:export-ydpi="35.687733" class="st0" d="
		M495.9,278.1c0.7-0.7,1.5-0.7,2.2-1.5c-0.7,0-1.5-0.7-2.2-0.7V278.1z"/>
	
		<path id="path43" inkscape:connector-curvature="0" inkscape:export-xdpi="35.687733" inkscape:export-ydpi="35.687733" class="st0" d="
		M485.5,264.7c-24.5-11.2-45.4-29-59.5-52h-2.2c13.4,22.3,33.5,40.1,56.5,52H485.5z"/>
	
		<path id="path45" inkscape:connector-curvature="0" inkscape:export-xdpi="35.687733" inkscape:export-ydpi="35.687733" class="st0" d="
		M410.4,184.4c2.2,6.7,4.5,13.4,7.4,19.3v-5.2c-2.2-5.2-4.5-11.2-6.7-17.1C411.9,182.2,411.2,183.6,410.4,184.4z"/>
	
		<path id="path47" inkscape:connector-curvature="0" inkscape:export-xdpi="35.687733" inkscape:export-ydpi="35.687733" class="st0" d="
		M507.1,272.1c-3.7-0.7-7.4-2.2-11.2-3v2.2c2.2,0.7,5.2,1.5,7.4,2.2C504.8,272.9,505.6,272.1,507.1,272.1z"/>
	
		<path id="path49" inkscape:connector-curvature="0" inkscape:export-xdpi="35.687733" inkscape:export-ydpi="35.687733" class="st0" d="
		M418.6,84.8c-5.9,11.9-10.4,25.3-12.6,39.4c0.7,0.7,1.5,1.5,1.5,2.2c1.5-12.6,5.2-25.3,10.4-37.2v-4.5L418.6,84.8z"/>
	
		<path id="path51" inkscape:connector-curvature="0" inkscape:export-xdpi="35.687733" inkscape:export-ydpi="35.687733" class="st0" d="
		M632,48.3c-23.8-23.8-57.2-37.9-93.7-37.9c-49.8,0-93.7,27.5-116.7,67.7h2.2c23-39.4,65.4-65.4,113.8-65.4
		c35.7,0,67.7,14.1,91.4,36.4L632,48.3z"/>
	
		<path id="path53" inkscape:connector-curvature="0" inkscape:export-xdpi="35.687733" inkscape:export-ydpi="35.687733" class="st0" d="
		M588.8,265.4h5.2c23.8-11.2,43.9-29,58-50.6c-0.7,0-1.5-0.7-2.2-0.7C635.7,237.2,614.1,255,588.8,265.4z"/>
	
		<path id="path55" inkscape:connector-curvature="0" inkscape:export-xdpi="35.687733" inkscape:export-ydpi="35.687733" class="st0" d="
		M672.1,144.2c0-12.6-1.5-24.5-5.2-35.7h-2.2c3,11.2,5.2,23,5.2,35.7c0,13.4-2.2,26-5.9,38.7c0.7,0.7,1.5,0.7,2.2,0.7
		C670.6,171,672.1,157.6,672.1,144.2z"/>
	
		<path id="path57" inkscape:connector-curvature="0" inkscape:export-xdpi="35.687733" inkscape:export-ydpi="35.687733" class="st0" d="
		M575.5,270.6c-3.7,0.7-6.7,2.2-10.4,3c0.7,0.7,2.2,0.7,3,1.5c2.2-0.7,5.2-1.5,7.4-2.2V270.6z"/>
	
		<path id="path59" inkscape:connector-curvature="0" inkscape:export-xdpi="35.687733" inkscape:export-ydpi="35.687733" class="st0" d="
		M667.7,144.2c0-12.6-1.5-24.5-5.2-36.4h-2.2c3.7,11.2,5.2,23.8,5.2,36.4c0,11.9-1.5,23-4.5,34.2c0.7,0.7,0.7,1.5,1.5,2.2
		C666.2,169.5,667.7,156.9,667.7,144.2z"/>
	
		<path id="path61" inkscape:connector-curvature="0" inkscape:export-xdpi="35.687733" inkscape:export-ydpi="35.687733" class="st0" d="
		M413.4,178.4c1.5,5.2,3,9.7,5.2,14.9v-5.9c-1.5-3.7-3-8.2-3.7-11.9C414.1,177,414.1,177.7,413.4,178.4z"/>
	
		<path id="path63" inkscape:connector-curvature="0" inkscape:export-xdpi="35.687733" inkscape:export-ydpi="35.687733" class="st0" d="
		M626.8,49.8c-23-21.6-54.3-34.9-88.5-34.9c-46.8,0-88.5,25.3-110.8,63.2h2.2c22.3-36.4,62.5-61,108.6-61
		c33.5,0,63.2,12.6,86.2,33.5L626.8,49.8z"/>
	
		<path id="path65" inkscape:connector-curvature="0" inkscape:export-xdpi="35.687733" inkscape:export-ydpi="35.687733" class="st0" d="
		M513,269.1c-34.2-6.7-63.9-27.5-81.8-56.5H429c14.1,23,36.4,41.6,61.7,52h3.7h2.2v2.2c4.5,1.5,8.9,3,13.4,3.7
		C510.8,270.6,512.3,269.9,513,269.1z"/>
	
		<path id="path67" inkscape:connector-curvature="0" inkscape:export-xdpi="35.687733" inkscape:export-ydpi="35.687733" class="st0" d="
		M418.6,101.9v-5.9c-4.5,10.4-7.4,21.6-8.9,33.5c0.7,0.7,1.5,2.2,1.5,3C412.6,121.9,414.9,111.5,418.6,101.9z"/>
	
		<path id="path69" inkscape:connector-curvature="0" inkscape:export-xdpi="35.687733" inkscape:export-ydpi="35.687733" class="st0" d="
		M577.7,265.4L577.7,265.4h5.9c26.8-9.7,49.1-28.3,63.9-52c-0.7,0-1.5-0.7-2.2-0.7C630.5,237.2,606.7,256.5,577.7,265.4z"/>
	
		<path id="path71" inkscape:connector-curvature="0" inkscape:export-xdpi="35.687733" inkscape:export-ydpi="35.687733" class="st0" d="
		M575.5,268.4v-1.5c-5.2,1.5-11.2,3-17.1,3.7c1.5,0.7,2.2,0.7,3.7,1.5C567.3,270.6,571.7,269.9,575.5,268.4z"/>
	
		<path id="path73" inkscape:connector-curvature="0" inkscape:export-xdpi="35.687733" inkscape:export-ydpi="35.687733" class="st0" d="
		M418.6,179.2V171c-0.7-2.2-0.7-3.7-1.5-5.9c0,1.5-0.7,3.7-0.7,5.2C417.1,174,417.8,177,418.6,179.2z"/>
	
		<path id="path75" inkscape:connector-curvature="0" inkscape:export-xdpi="35.687733" inkscape:export-ydpi="35.687733" class="st0" d="
		M418.6,117.5v-8.2c-2.2,8.9-4.5,17.8-4.5,26.8c0.7,1.5,1.5,3.7,1.5,5.2C415.6,133.8,416.4,125.7,418.6,117.5z"/>
	
		<path id="path77" inkscape:connector-curvature="0" inkscape:export-xdpi="35.687733" inkscape:export-ydpi="35.687733" class="st0" d="
		M659.5,175.5c2.2-9.7,3.7-20.1,3.7-30.5c0-11.9-1.5-23.8-5.2-34.9v8.2c2.2,8.9,3,17.8,3,26.8c0,8.9-0.7,17.8-3,26
		C658.7,172.5,659.5,174,659.5,175.5z"/>
	
		<path id="path79" inkscape:connector-curvature="0" inkscape:export-xdpi="35.687733" inkscape:export-ydpi="35.687733" class="st0" d="
		M524.2,266.9c-36.4-4.5-68.4-24.5-87.7-53.5h-2.2c18.6,29,49.1,49.1,84.8,55C520.4,267.7,521.9,266.9,524.2,266.9z"/>
	
		<path id="path81" inkscape:connector-curvature="0" inkscape:export-xdpi="35.687733" inkscape:export-ydpi="35.687733" class="st0" d="
		M622.3,53.5V52C600,32,571,20.1,539,20.1c-44.6,0-83.3,23-105.6,58.7h2.2c21.6-34.2,60.2-56.5,103.3-56.5c32,0,61.7,12.6,83.3,32.7
		L622.3,53.5z"/>
	
		<path id="path83" inkscape:connector-curvature="0" inkscape:export-xdpi="35.687733" inkscape:export-ydpi="35.687733" class="st0" d="
		M547.2,266.9c2.2,0.7,3.7,0.7,5.9,1.5c37.9-4.5,70.6-26,90.7-57.2c-0.7,0-1.5-0.7-1.5-0.7C621.6,242.4,587.4,263.9,547.2,266.9z"/>
	
		<path id="path85" inkscape:connector-curvature="0" inkscape:export-xdpi="35.687733" inkscape:export-ydpi="35.687733" class="st0" d="
		M628.3,196.3c-17.8,31.2-51.3,52-90,52c-35.7,0-66.9-17.8-85.5-45.4v8.2v2.2h-2.2h-9.7c21.6,30.5,57.2,50.6,98.1,50.6
		c42.4,0,79.6-22.3,101.1-55c-2.2-1.5-4.5-3.7-5.9-5.9C631.2,200.7,629.7,198.5,628.3,196.3L628.3,196.3z"/>
	
		<path id="path87" inkscape:connector-curvature="0" inkscape:export-xdpi="35.687733" inkscape:export-ydpi="35.687733" class="st0" d="
		M622.3,77.3V58C600.7,37.2,571,23.8,539,23.8c-41.6,0-78.8,21.6-99.6,53.5H452h2.2v2.2V84c18.6-26.8,49.8-44.6,84.8-44.6
		c32,0,61,14.1,79.6,37.2L622.3,77.3z"/>
	
		<path id="path89" inkscape:connector-curvature="0" inkscape:export-xdpi="35.687733" inkscape:export-ydpi="35.687733" class="st0" d="
		M622.3,171c-11.2,35.7-44.6,61-84,61c-41.6,0-75.8-28.3-85.5-66.9v33.5c17.8,28.3,49.8,46.8,85.5,46.8c37.9,0,71.4-20.8,88.5-52
		c-3-5.9-4.5-12.6-4.5-20.8V171z"/>
	
		<path id="path91" inkscape:connector-curvature="0" inkscape:export-xdpi="35.687733" inkscape:export-ydpi="35.687733" class="st0" d="
		M615.6,77.3c-18.6-21.6-46.1-34.9-77.3-34.9c-32.7,0-62.5,15.6-81,40.1c6.7-5.2,15.6-7.4,26-7.4c14.9-11.9,34.2-18.6,54.3-18.6
		c31.2,0,58,15.6,73.6,40.1V81v-2.2h2.2L615.6,77.3z"/>
	
		<path id="path93" inkscape:connector-curvature="0" inkscape:export-xdpi="35.687733" inkscape:export-ydpi="35.687733" class="st0" d="
		M622.3,116.7v-8.9h-3C620.1,110.8,621.6,113.8,622.3,116.7z"/>
	
		<path id="path95" inkscape:connector-curvature="0" inkscape:export-xdpi="35.687733" inkscape:export-ydpi="35.687733" class="st0" d="
		M614.9,108.6c3.7,8.2,5.9,16.4,7.4,25.3v-8.2c-1.5-5.9-3-11.9-5.9-17.1L614.9,108.6z"/>
	
		<path id="path97" inkscape:connector-curvature="0" inkscape:export-xdpi="35.687733" inkscape:export-ydpi="35.687733" class="st0" d="
		M455,122.7c-0.7,4.5-1.5,8.9-2.2,13.4v16.4c4.5,43.9,40.9,78.1,85.5,78.1c40.9,0,75.8-29,84-67.7v-8.2c-5.2,41.6-40.9,74.3-84,74.3
		c-46.8,0-84.8-37.9-84.8-84.8c0-9.7,1.5-18.6,4.5-26.8C457.2,119,455.8,121.2,455,122.7z"/>
	
		<path id="path99" inkscape:connector-curvature="0" inkscape:export-xdpi="35.687733" inkscape:export-ydpi="35.687733" class="st0" d="
		M611.9,102.6v-3C597,74.3,569.5,58,538.3,58c-19.3,0-36.4,5.9-51.3,17.1c0.7,0,1.5,0,2.2,0c14.1-9.7,30.5-15.6,49.1-15.6
		C570.3,59.5,597.8,76.6,611.9,102.6z"/>
	
		<path id="path101" inkscape:connector-curvature="0" inkscape:export-xdpi="35.687733" inkscape:export-ydpi="35.687733" class="st0" d="
		M538.3,67.7c-14.9,0-29,4.5-40.1,11.2V87c11.2-8.2,25.3-12.6,40.1-12.6c38.7,0,69.9,31.2,69.9,69.9c0,8.2-1.5,17.1-3.7,24.5
		c-30.5-17.1-63.9-26.8-107.1-27.5c-9.7,0-19.3,0-29,0.7c0.7-12.6,4.5-24.5,11.2-34.9l0,0c-1.5,0-3,0-4.5,0s-3,0.7-4.5,0.7
		c-5.9,11.2-9.7,23.8-9.7,37.2c0,42.4,34.2,77.3,77.3,77.3c42.4,0,77.3-34.2,77.3-77.3C615.6,101.9,581.4,67.7,538.3,67.7z"/>
	
		<path id="path103" inkscape:connector-curvature="0" inkscape:export-xdpi="35.687733" inkscape:export-ydpi="35.687733" class="st0" d="
		M88.5,110c17.1-9.7,22.3-21.6,21.6-35.7c-1.5-26-17.8-40.9-52-43.9L0,32v179.2h63.9c0.7,0,0.7,0,1.5,0c23.8,0,55.8-18.6,57.2-49.8
		C123.4,137.5,112.3,119.7,88.5,110z M32.7,57.2h26l0,0c11.2,0,18.6,8.9,19.3,20.8c0,11.9-6.7,23.8-25.3,23.8H52H32V57.2H32.7z
		 M54.3,185.1H32.7v-58.7h26c21.6,1.5,29,9.7,29,30.5C88.5,176.2,75.1,184.4,54.3,185.1z"/>
	
		<path id="path105" inkscape:connector-curvature="0" inkscape:export-xdpi="35.687733" inkscape:export-ydpi="35.687733" class="st0" d="
		M358.4,211.2c14.9,0,32-6.7,43.9-19.3l0,0l0,0c1.5-1.5,3-3.7,4.5-5.2l0,0l0,0c0.7-1.5,2.2-3,3-5.2l0,0c0.7-0.7,0.7-2.2,1.5-3l0,0
		c0.7-0.7,0.7-2.2,1.5-3.7l0,0c0-0.7,0-1.5,0.7-1.5c0-0.7,0.7-1.5,0.7-1.5s0,0,0-0.7l0,0c0.7-2.2,0.7-4.5,1.5-6.7l0,0
		c0-1.5,0-2.2,0-3.7c0-3,0-5.9,0-8.9c0-0.7,0-0.7,0-1.5c0-2.2-0.7-4.5-1.5-6.7c0,0,0,0,0-0.7l0,0c-0.7-2.2-1.5-4.5-2.2-6.7l0,0
		c-1.5-0.7-1.5-1.5-2.2-3l0,0c-0.7-1.5-1.5-2.2-2.2-3.7l0,0c-0.7-0.7-1.5-1.5-1.5-2.2l0,0c-1.5-1.5-2.2-3-3.7-4.5l0,0
		c-0.7-0.7-1.5-1.5-2.2-1.5c-0.7-0.7-2.2-2.2-3-3l0,0l0,0c-4.5-3-8.9-5.9-14.1-8.2c17.1-9.7,22.3-21.6,21.6-35.7
		c-1.5-26-17.8-40.9-52-43.9l-58,1.5v179.2H358.4C357.6,211.2,357.6,211.2,358.4,211.2z M326.4,57.2h26l0,0
		c11.2,0,18.6,8.9,19.3,20.8c0,11.9-6.7,23.8-25.3,23.8h-0.7h-20.1L326.4,57.2z M326.4,185.1v-58.7h26c21.6,1.5,29,9.7,29,30.5
		c0,20.1-12.6,28.3-34.2,28.3L326.4,185.1z"/>
	<polygon id="polygon107" inkscape:export-xdpi="35.687733" inkscape:export-ydpi="35.687733" class="st0" points="724.2,400.7 
		754.6,400.7 754.6,269.9 712.3,269.9 712.3,294.4 724.2,294.4 	">
	</polygon>
	<polygon id="polygon109" inkscape:export-xdpi="35.687733" inkscape:export-ydpi="35.687733" class="st0" points="774.7,400.7 
		805.2,400.7 805.2,213.4 774.7,226 	">
	</polygon>
	
		<path id="path111" inkscape:connector-curvature="0" inkscape:export-xdpi="35.687733" inkscape:export-ydpi="35.687733" class="st0" d="
		M451.3,80.3h-14.1h-3.7h-2.2h-3H426h-3h-2.2v4.5v5.9v5.2v6.7v6.7v12.6v45.4v14.1v5.2v6.7v5.2v4.5v4.5v3h1.5h2.2h2.2h2.2h3.7h2.2
		h4.5h11.2v-11.9v-3.7v-44.6v-12.6v-5.2c0-1.5,0-3.7,0.7-5.2c0-0.7,0-0.7,0.7-1.5c0.7-1.5,0.7-3,1.5-3.7
		c3.7-8.9,11.9-16.4,21.6-17.1c1.5,0,3,0,4.5,0c5.9,0,13.4,1.5,17.1,3.7V90l0,0v-4.5v-6.7c-3-0.7-5.9-0.7-8.9-0.7l0,0
		c-0.7,0-1.5,0-2.2,0l0,0l0,0c-1.5,0-2.2,0-3.7,0l0,0c-0.7,0-2.2,0-3,0.7c-1.5,0-3.7,0-5.2,0.7c-1.5,0-3,0.7-3.7,1.5
		c-1.5,0.7-3,0.7-4.5,1.5s-3,1.5-4.5,2.2c-0.7,0.7-2.2,1.5-3,2.2c-2.2,1.5-4.5,3.7-5.9,5.9l0,0l0,0v-3.7L451.3,80.3z"/>
	
		<path id="path113" inkscape:connector-curvature="0" inkscape:export-xdpi="35.687733" inkscape:export-ydpi="35.687733" class="st0" d="
		M989.6,77.3c-15.6,0-26.8,5.2-34.9,14.9V80.3h-29.7v39.4c-10.4-29-30.5-41.6-57.2-42.4c-1.5,0-2.2,0-3.7,0
		c-26,0-45.4,11.9-58.7,38.7c-3.7-23-17.1-37.9-48.3-37.9c-0.7,0-1.5,0-2.2,0c-11.9,0-23.8,3-32,9.7V23l-31.2,8.2v152.4l-11.9,3
		c-0.7,0-1.5,0-3,0c-0.7,0-1.5,0-2.2,0h-0.7c-5.2-0.7-8.9-2.2-11.9-5.2l-0.7-0.7c-1.5-1.5-2.2-3-3-5.2v-0.7
		c-0.7-2.2-1.5-4.5-1.5-7.4v-2.2v-44.6v-12.6v-3h1.5h3h2.2h2.2h2.2h4.5h6.7h5.2v-26h-14.9h-6.7h-6.7v-8.2V60.2V42.4l-11.2,3.7l0,0
		l-6.7,2.2l0,0l-9.7,3l0,0h-0.7l-3.7,1.5v0.7v3v3.7v19.3h-4.5h-2.2h-3v19.3v4.5v2.2h0.7h2.2h6.7v20.1v10.4v18.6v7.4v11.2
		c0,3,0.7,5.9,1.5,8.9c0,0.7,0,1.5,0.7,1.5c0.7,2.2,1.5,4.5,2.2,5.9v0.7l0,0c0,0.7,0.7,1.5,0.7,2.2l0,0c0,0,0,0.7,0.7,0.7
		c1.5,3,3,5.2,5.2,7.4c1.5,2.2,3.7,3.7,5.2,5.2l0,0c0.7,0.7,2.2,1.5,3,1.5l0,0c0.7,0,1.5,0.7,1.5,0.7l0,0c0.7,0.7,1.5,0.7,2.2,1.5
		l0,0c0,0,0,0,0.7,0c0,0,0.7,0,0.7,0.7h0.7l0,0c0.7,0,1.5,0,2.2,0.7l0,0c0.7,0,1.5,0.7,2.2,0.7l0,0c1.5,0,3,0.7,4.5,0.7l0,0
		c2.2,0,4.5,0.7,6.7,0.7l0,0h0.7l26-3h30.5v-93.7c5.9-8.9,14.9-13.4,27.5-13.4c15.6,0.7,23.8,8.2,25.3,23v84h29.7h0.7v-29.7
		c12.6,21.6,28.3,32.7,53.5,32.7c2.2,0,5.2,0,8.2,0c11.9-0.7,20.8-1.5,32-5.9V177c-5.9,4.5-9.7,5.9-14.1,8.2
		c-3,1.5-8.9,2.2-14.1,2.2h-0.7c-20.8-0.7-37.2-8.9-37.9-32.7h92.9v55.8h29.7v-79.6c3.7-16.4,12.6-25.3,25.3-26.8c1.5,0,2.2,0,3.7,0
		c5.9,0,12.6,1.5,16.4,3.7v-29C995.5,77.3,992.6,77.3,989.6,77.3z M832.7,131.6c1.5-20.1,15.6-28.3,30.5-28.3h0.7
		c20.1,0,30.5,12.6,31.2,28.3H832.7z"/>
	
		<path id="path115" inkscape:connector-curvature="0" inkscape:export-xdpi="35.687733" inkscape:export-ydpi="35.687733" class="st0" d="
		M381.4,301.1c17.1-9.7,23-21.6,22.3-36.4c-1.5-26.8-18.6-41.6-52.8-44.6l-59.5,1.5v182.2h64.7c0.7,0,0.7,0,1.5,0
		c24.5,0,56.5-19.3,58-50.6C416.4,328.6,405.2,310.8,381.4,301.1z M324.9,247.6h26l0,0c11.2,0,19.3,8.9,19.3,20.8
		s-6.7,23.8-25.3,23.8h-0.7h-20.1L324.9,247.6z M346.5,377h-21.6v-59.5h26c22.3,2.2,29.7,9.7,29.7,30.5
		C380.7,368.8,367.3,377,346.5,377z"/>
	
		<circle id="ellipse117" inkscape:export-xdpi="35.687733" inkscape:export-ydpi="35.687733" class="st0" cx="740.5" cy="243.1" r="17.8">
	</circle>
	
		<path id="path119" inkscape:connector-curvature="0" inkscape:export-xdpi="35.687733" inkscape:export-ydpi="35.687733" class="st0" d="
		M663.9,321.2c-16.4-3-20.1-4.5-20.1-4.5c-3-0.7-11.9-11.2-3-17.8c3.7-3,7.4-3.7,11.9-3.7c5.9,0,11.9,2.2,14.9,4.5
		c5.2,3.7,9.7,12.6,9.7,12.6l27.5-9.7c0,0-5.2-14.1-13.4-22.3c-4.5-4.5-14.1-15.6-41.6-15.6c-0.7,0-0.7,0-1.5,0
		c-28.3,0-40.1,26-40.1,26v-20.1v-2.2H600h-11.2h-5.9h-5.2v1.5v2.2v4.5v6.7v0.7c0,0-0.7,0-0.7-0.7l0,0c0,0,0,0-0.7,0
		c-0.7-0.7-1.5-0.7-2.2-1.5c0,0-0.7,0-0.7-0.7c-0.7-0.7-2.2-1.5-3-2.2l0,0l0,0c-1.5-0.7-3.7-2.2-5.9-3l0,0c-0.7-0.7-2.2-0.7-3.7-1.5
		l0,0c-0.7-0.7-2.2-0.7-3-1.5l0,0c-1.5-0.7-3-0.7-4.5-1.5l0,0c-2.2-0.7-5.2-1.5-7.4-1.5l0,0H545c-0.7,0-1.5,0-2.2,0
		c-2.2,0-5.2-0.7-8.2-0.7l0,0c-3,0-5.9,0-8.2,0.7l0,0l0,0c-2.2,0.7-5.2,0.7-7.4,1.5l0,0l0,0h-0.7c-0.7,0-2.2,0.7-3,0.7l0,0
		c-0.7,0.7-2.2,0.7-3,1.5l0,0c-1.5,0.7-2.2,0.7-3,1.5l0,0c-2.2,0.7-3.7,2.2-5.9,3l0,0c0,0,0,0-0.7,0c-0.7,0.7-2.2,1.5-3,1.5
		c-0.7,0-0.7,0.7-0.7,0.7c-0.7,0.7-1.5,0.7-2.2,1.5c0,0,0,0-0.7,0l0,0c-0.7,0.7-1.5,0.7-1.5,0.7V281v-6.7v-4.5v-1.5v-0.7h-2.2h-5.9
		h-8.9c-0.7,0-0.7,0-1.5,0l0,0c-0.7,0-2.2,0-3,0c-1.5,0-2.2,0.7-3.7,0.7c-0.7,0-2.2,0.7-3,0.7l0,0c-11.2,3.7-17.8,12.6-17.8,12.6
		v-11.9h-29.7v130.9h29.7v-69.9c0,0-0.7-19.3,8.9-29c7.4-7.4,18.6-8.2,23-8.2c0.7,0,1.5,0,1.5,0s-21.6,25.3-12.6,62.5
		c5.2,19.3,25.3,45.4,57.2,48.3c3,0,5.2,0.7,7.4,0.7c27.5,0,43.9-14.9,43.9-14.9v14.9h29v-18.6c0,0,13.4,14.1,23.8,17.8
		c5.9,2.2,14.1,3.7,23.8,3.7c8.9,0,18.6-1.5,28.3-5.2c22.3-8.9,29.7-32.7,24.5-51.3C701.9,332.3,681,324.2,663.9,321.2z M535.3,377
		c-22.3,0-40.1-17.8-40.1-40.1c0-22.3,17.8-40.1,40.1-40.1c22.3,0,40.1,17.8,40.1,40.1C575.5,359.1,557.6,377,535.3,377z
		 M666.2,379.9c-3.7,0.7-6.7,0.7-9.7,0.7c-9.7,0-15.6-3-19.3-7.4c-5.9-5.2-9.7-15.6-9.7-15.6l-20.1,6.7v-38.7
		c0,0,11.2,16.4,37.9,21.6c19.3,3.7,32,8.9,32.7,14.9C679.6,365.8,681,377,666.2,379.9z"/>
	<polygon id="polygon121" inkscape:export-xdpi="35.687733" inkscape:export-ydpi="35.687733" class="st0" points="127.1,211.2 
		156.9,211.2 156.9,81 114.5,81 114.5,104.8 127.1,104.8 	">
	</polygon>
	
		<path id="path125" inkscape:connector-curvature="0" inkscape:export-xdpi="35.687733" inkscape:export-ydpi="35.687733" class="st0" d="
		M278.8,211.2c-1.5-8.2-5.2-14.1-10.4-18.6c-5.9-5.2-15.6-8.2-26.8-8.2h-0.7c-0.7,0-1.5,0-1.5,0l-20.8,2.2
		c-5.9,0.7-10.4,1.5-13.4,1.5c-4.5,0-6.7-1.5-6.7-3.7c0.7-4.5,3.7-7.4,10.4-8.9l10.4,1.5c1.5,0,3.7,0,5.2,0
		c12.6,0,24.5-3.7,34.2-12.6c9.7-8.9,14.9-20.8,14.9-35.7c-0.7-9.7-3-18.6-8.2-27.5l14.1-11.9l0.7-0.7l-20.8-18.6l-13.4,13.4
		c-8.2-4.5-17.8-6.7-28.3-6.7c-14.9,0-28.3,5.2-38.7,14.9c-11.2,10.4-16.4,22.3-15.6,35.7c0,13.4,5.2,24.5,16.4,33.5l7.4,5.2
		c-12.6,4.5-18.6,12.6-18.6,24.5c3,12.6,12.6,19.3,27.5,20.1c0,0,19.3-0.7,28.3-1.5c2.2,0,4.5,0,7.4,0c8.9,0,19.3,2.2,17.8,11.2
		c-0.7,5.9-6.7,10.4-17.1,12.6c-4.5,0.7-8.2,1.5-12.6,1.5c-5.2,0-9.7-0.7-14.9-2.2c-8.9-2.2-16.4-6.7-21.6-12.6l-18.6,23
		c11.2,9.7,28.3,16.4,49.8,18.6c1.5,0,2.2,0,3.7,0c0.7,0,1.5,0,1.5,0c32.7-1.5,52.8-13.4,58.7-33.5
		C279.6,224.5,279.6,216.4,278.8,211.2z M191.1,127.9c0-7.4,2.2-13.4,7.4-17.8c5.2-5.2,11.2-7.4,17.8-7.4c5.9,0,12.6,2.2,17.8,7.4
		c5.2,4.5,7.4,10.4,7.4,17.8c0,6.7-2.2,12.6-7.4,17.1c-5.9,5.2-11.9,7.4-17.8,7.4c-7.4,0-13.4-2.2-17.8-7.4
		C194.1,140.5,191.1,134.6,191.1,127.9z"/>
	
		<ellipse id="path1197" inkscape:export-xdpi="35.687733" inkscape:export-ydpi="35.687733" class="st0" cx="142.5" cy="46.8" rx="18.1" ry="17.8">
	</ellipse>
</g>
</svg>
