<?xml version="1.0" encoding="utf-8"?>
<!-- Generator: Adobe Illustrator 25.0.0, SVG Export Plug-In . SVG Version: 6.00 Build 0)  -->
<svg version="1.1" id="katman_1" xmlns="http://www.w3.org/2000/svg" xmlns:xlink="http://www.w3.org/1999/xlink" x="0px" y="0px"
	 viewBox="0 0 1237.3 864" style="enable-background:new 0 0 1237.3 864;" xml:space="preserve">
<style type="text/css">
	.st0{clip-path:url(#SVGID_2_);fill:#1A4229;}
	.st1{clip-path:url(#SVGID_2_);fill:#FEFEFE;}
	.st2{clip-path:url(#SVGID_2_);fill:#C22026;}
	.st3{clip-path:url(#SVGID_2_);fill:#0A473F;}
	.st4{clip-path:url(#SVGID_2_);fill:#365C37;}
	.st5{clip-path:url(#SVGID_2_);fill:#537F45;}
	.st6{clip-path:url(#SVGID_2_);fill:#79AF58;}
	.st7{clip-path:url(#SVGID_2_);fill:#41683C;}
	.st8{clip-path:url(#SVGID_2_);fill:#305532;}
	.st9{clip-path:url(#SVGID_2_);fill:#4A7440;}
	.st10{clip-path:url(#SVGID_2_);fill:#3C6339;}
	.st11{clip-path:url(#SVGID_2_);fill:#466E3E;}
	.st12{clip-path:url(#SVGID_2_);fill:#598448;}
	.st13{clip-path:url(#SVGID_2_);fill:#628F4C;}
	.st14{clip-path:url(#SVGID_2_);fill:#537E45;}
	.st15{clip-path:url(#SVGID_2_);fill:#71A353;}
	.st16{clip-path:url(#SVGID_2_);fill:#4E7942;}
	.st17{clip-path:url(#SVGID_2_);fill:#5D8A4A;}
	.st18{clip-path:url(#SVGID_2_);fill:#598548;}
	.st19{clip-path:url(#SVGID_2_);fill:#6C9C51;}
	.st20{clip-path:url(#SVGID_2_);fill:#67964E;}
	.st21{clip-path:url(#SVGID_2_);fill:#75A955;}
	.st22{clip-path:url(#SVGID_2_);fill:#4E7842;}
	.st23{clip-path:url(#SVGID_2_);fill:#163F26;}
	.st24{clip-path:url(#SVGID_2_);fill:#103920;}
	.st25{clip-path:url(#SVGID_2_);fill:#0F381F;}
	.st26{clip-path:url(#SVGID_2_);fill:#133C23;}
	.st27{clip-path:url(#SVGID_2_);fill:#123B22;}
	.st28{clip-path:url(#SVGID_2_);fill:#153E24;}
	.st29{clip-path:url(#SVGID_2_);fill:#184027;}
	.st30{clip-path:url(#SVGID_2_);fill:#163E25;}
	.st31{clip-path:url(#SVGID_2_);fill:#C72025;}
	.st32{clip-path:url(#SVGID_2_);fill:#184128;}
	.st33{clip-path:url(#SVGID_2_);fill:#C82025;}
	.st34{clip-path:url(#SVGID_2_);fill:#C62025;}
	.st35{clip-path:url(#SVGID_2_);fill:#134535;}
	.st36{clip-path:url(#SVGID_2_);fill:#113A20;}
	.st37{clip-path:url(#SVGID_2_);fill:#D41C25;}
	.st38{clip-path:url(#SVGID_2_);fill:#173F25;}
	.st39{clip-path:url(#SVGID_2_);fill:#143C22;}
	.st40{clip-path:url(#SVGID_2_);fill:#1A4128;}
	.st41{clip-path:url(#SVGID_2_);fill:#194127;}
	.st42{clip-path:url(#SVGID_2_);fill:#194128;}
	.st43{clip-path:url(#SVGID_2_);fill:#143C23;}
	.st44{clip-path:url(#SVGID_2_);fill:#153D25;}
	.st45{clip-path:url(#SVGID_2_);fill:#143D23;}
	.st46{clip-path:url(#SVGID_2_);fill:#173E26;}
	.st47{clip-path:url(#SVGID_2_);fill:#173F26;}
	.st48{clip-path:url(#SVGID_2_);fill:#133B22;}
	.st49{clip-path:url(#SVGID_2_);fill:#153E23;}
	.st50{clip-path:url(#SVGID_2_);fill:#153E26;}
	.st51{clip-path:url(#SVGID_2_);fill:#032E14;}
	.st52{clip-path:url(#SVGID_2_);fill:#053016;}
	.st53{clip-path:url(#SVGID_2_);fill:#133B23;}
	.st54{clip-path:url(#SVGID_2_);fill:#153D26;}
	.st55{clip-path:url(#SVGID_2_);fill:#19402A;}
	.st56{clip-path:url(#SVGID_2_);fill:#073117;}
	.st57{clip-path:url(#SVGID_2_);fill:#073218;}
	.st58{clip-path:url(#SVGID_2_);fill:#7F3527;}
	.st59{clip-path:url(#SVGID_2_);fill:#0A4135;}
	.st60{clip-path:url(#SVGID_2_);fill:#0F4436;}
	.st61{clip-path:url(#SVGID_2_);fill:#0E4436;}
	.st62{clip-path:url(#SVGID_2_);fill:#114437;}
	.st63{clip-path:url(#SVGID_2_);fill:#114537;}
	.st64{clip-path:url(#SVGID_2_);fill:#114333;}
	.st65{clip-path:url(#SVGID_2_);fill:#134630;}
	.st66{clip-path:url(#SVGID_2_);fill:#124434;}
	.st67{clip-path:url(#SVGID_2_);fill:#104232;}
	.st68{clip-path:url(#SVGID_2_);fill:#104437;}
	.st69{clip-path:url(#SVGID_2_);fill:#0E4336;}
	.st70{clip-path:url(#SVGID_2_);fill:#0E4132;}
	.st71{clip-path:url(#SVGID_2_);fill:#11412E;}
	.st72{clip-path:url(#SVGID_2_);fill:#0C3D27;}
	.st73{clip-path:url(#SVGID_2_);fill:#0E4335;}
	.st74{clip-path:url(#SVGID_2_);fill:#104436;}
	.st75{clip-path:url(#SVGID_2_);fill:#114535;}
	.st76{clip-path:url(#SVGID_2_);fill:#0B4032;}
	.st77{clip-path:url(#SVGID_2_);fill:#124332;}
	.st78{clip-path:url(#SVGID_2_);fill:#023B2F;}
	.st79{clip-path:url(#SVGID_2_);fill:#104233;}
	.st80{clip-path:url(#SVGID_2_);fill:#013A2D;}
	.st81{clip-path:url(#SVGID_2_);fill:#173F27;}
	.st82{clip-path:url(#SVGID_2_);fill:#073E31;}
	.st83{clip-path:url(#SVGID_2_);fill:#0B4134;}
	.st84{clip-path:url(#SVGID_2_);fill:#114232;}
	.st85{clip-path:url(#SVGID_2_);fill:#114435;}
</style>
<g>
	<defs>
		<rect id="SVGID_1_" x="243.7" y="57" width="750" height="750"/>
	</defs>
	<clipPath id="SVGID_2_">
		<use xlink:href="#SVGID_1_"  style="overflow:visible;"/>
	</clipPath>
	<path class="st0" d="M536.8,787.4c-29,0.6-57.6-2.3-85.7-10c-52.7-14.4-95.9-42.8-128.1-87.3c-19.9-27.5-33.4-58-42.2-90.6
		c-6-22.3-9.6-45-11-68.1c-0.5-8-1.2-15.9-0.7-23.9c1.1-17.2,2.5-34.3,5.5-51.3c8.9-50.2,27.3-96.9,53.2-140.7
		c20.2-34.2,44.2-65.5,71.9-94c32.8-33.9,69.5-63,110.3-86.7c40.9-23.7,84.2-41.1,130.6-50.7c21.1-4.4,42.4-7,63.9-7.5
		c52.7-1.4,102.1,10.4,147.6,37.3c41.2,24.4,70.9,59.2,90.2,102.9c12.1,27.4,19.1,56.1,22.7,85.7c1.5,12.2,2,24.4,2.8,36.6
		c0.5,7.6,0.9,15.3,0.4,22.9c-1.5,25-3.8,49.8-9.1,74.4c-11.3,52.4-31.9,100.9-61.2,145.8c-28.2,43.3-62.6,80.8-103.2,112.7
		c-40.5,31.8-84.9,56.2-133.7,72.5c-33.5,11.2-68,18.1-103.3,19.8C550.7,787.7,543.8,787.4,536.8,787.4"/>
	<path class="st1" d="M390,662.4c-2.9-2.9-5.9-5.8-8.8-8.8c-1.2-0.7-2.3-1.5-2.7-3c-2.6-3.6-5.2-7.3-7.9-10.9
		c-1.4-0.2-1.1-1.3-1.4-2.2c-3.9-6.7-7.3-13.7-10.5-20.7c-1.4-1.4-1.8-3.3-2.5-5l0.1,0.1c-0.6-2.5-2.4-4.7-2.1-7.4
		c-1.2-4.2-2.4-8.4-3.6-12.6c-2.2-3.9-2-8.4-3.1-12.5c-0.6-2.3-1.2-4.6-1.2-7c-0.3-1.3,0.1-2.7-0.3-4c-0.1-0.5-0.1-1-0.3-1.5
		c-0.3-1.4,0-2.8-0.5-4.2c-0.1-4.5-1-9-0.9-13.6c0.1-3.8,0.3-7.6-0.5-11.4c-0.6-3,0.7-5.9,0.6-8.9c-0.5-10.8,1.1-21.4,2.1-32.1
		c0.4-1.2,0.4-2.5,0.4-3.8c0.2-2.1,0-4.2,1.3-6.1c2-9.3,3.2-18.7,5.5-27.9c1.8-7.2,3.7-14.4,5.6-21.5c-0.1-2.8,1.3-5.2,2.1-7.7
		c0.8-2.4,1.3-4.9,2.5-7.2l-0.1,0.1c1.8-3.7,2.6-7.8,4.9-11.2c3.9-8,7.1-16.3,11.5-24c5.2-9.2,11-18,17.4-26.4
		c1.3-1.7,2.6-3.5,3.9-5.3c-0.1-1,0.6-1.4,1.4-1.8c0.8-0.4,1.3-1.2,1.7-2c-0.1-1,0.6-1.4,1.4-1.8c3.3-3.7,6.7-7.3,10-11
		c0.3-1.1,1-1.8,2.1-2.1c0.1-0.1,0.3-0.3,0.4-0.4c0.3-1.1,1-1.8,2.1-2.1c2.7-2.5,5.4-5,8.1-7.4c0.3-1.1,1-1.9,2.2-2.1
		c0.7-0.1,1.1-0.5,1.4-1.1c0.3-0.8,0.7-1.5,1.8-1.4c10.1-7.9,20.4-15.6,31.8-21.7c4.4-2.3,8.8-4.5,13.3-6.8c2.9-1.8,5.8-3.3,9.2-3.8
		c11.4-4,23.1-6.9,35.1-8.6c0.3-0.5,0.7-0.4,1.1-0.1c10-0.9,20-0.8,30,0c0.4-0.3,0.8-0.4,1.1,0.1c4.8,1.1,4.8,1.1,5.1,6.2
		c0.8,1.7,0.5,3.5,0.4,5.2c-1,12.6-1.9,25.2-2.9,37.8c-0.6,7.2-1.2,14.5-1.5,21.7c-1,7.6-1.3,15.3-1.9,22.9c0.1,1.7-0.3,3.3-0.5,4.9
		c-0.3,2.5-1.7,3.1-3.9,2.3c-2.3-0.8-4.8-1.4-7.2-1.9c-8-1.6-16-1.3-24-0.1c-15.9,2.5-29.4,9.6-40.8,20.9c-1.6,1.6-3.3,3.2-4.8,4.9
		c-0.9,1.1-1.8,2.3-2.7,3.4c-2.4,3.2-4.9,6.3-6.8,9.8c-1.1,1.8-2.3,3.6-3.2,5.5c-1.3,2.7-3.1,5.2-4.1,8.1c-0.3,0.7-0.6,1.3-1,2
		c-1.7,3.3-2.9,6.8-4.2,10.3c-5.2,14.1-8.1,28.8-9.9,43.7c-0.3,2.9-0.2,5.8-0.7,8.6c-0.6,7.1-1.3,14.3-0.9,21.4
		c0.6,10.5,1.4,20.9,4.6,31c1.5,4.6,3.2,9.2,5.8,13.4c0.6,1.3,1.4,2.4,2.2,3.5c1.2,2.1,3.6,3.2,4.4,5.6c5.8,5.4,12.7,8.4,20.6,8.8
		c1.7-0.1,3.3-0.1,5,0c4.8,0.1,9.4-0.9,13.9-2.5c0.7-0.7,1.4-1,2.3-0.7c1.9-0.2,3.6-1,5.3-1.8c1.1-1.8,3.1-1.5,4.7-2
		c11.9-5.2,21.8-13.3,31.3-22.9c-0.3,4.8-0.5,8.8-0.7,12.9c1.5,2.1,0,4.4,0.2,6.6c0.1,1.3,0.1,2.7-0.2,4c-1.1,3.9-0.5,8-1,12
		c-0.4,3.4-0.9,6.9-0.8,10.4c-0.1,3.8-0.7,7.5-0.7,11.3c-1,3.9-0.6,8-1,12c-0.5,4.5-1,9-0.9,13.6c-0.3,1.2-0.6,2.4-0.5,3.6
		c0,0.5,0,1,0,1.6c-0.4,3.5-0.6,7-0.7,10.5c-0.1,2.9-0.7,5.8-3.6,7.5c-2.5,1.5-4.9,3.2-7.4,4.8c-3.2,1.8-6.4,3.8-9.6,5.6
		c-6.9,3.9-14.2,7-21.7,9.8c-0.6,0.2-1.1,0.5-1.7,0.7c-2.1,0.7-4.3,1.5-6.4,2.1c-9.5,2.9-19.1,4.7-29.1,5c-2,0-4,0-5.9,0
		c-10.4-0.1-20.5-2.2-30.4-5.6c-3-1.3-6.1-2.5-9.1-4c-1.5-1-3.5-1.3-4.4-3.1c-4.4-3.1-8.8-6.1-13.1-9.2
		C390.7,663.9,390.3,663.2,390,662.4"/>
	<path class="st1" d="M733,280.8c0.4-0.8,0.6-1.6,0.5-2.5c-0.3-3.4,1.1-6.4,1.7-9.6c0.9-4.2,2-8.4,3-12.6c0.3-1.1,0.1-2.6,1.6-3.1
		c1-2.8,2-5.6,3-8.4c0.8-3.6,2-7,4.4-9.8c1.2-2.1,2.5-4.3,3.7-6.4c0-0.5,0.2-0.9,0.7-1.1c1-1.3,1.9-2.6,2.9-3.9c0-1,0.6-1.4,1.4-1.8
		c1.7-1.4,3.1-3,4.4-4.8c1-2,2.5-3.6,4.6-4.6c8.1-7.1,16.4-13.8,26-18.9c2.3-1.2,4.6-2.4,6.8-3.6c1.7-2.3,4.8-1.8,6.9-3.4
		c2.3-0.4,4.5-1.7,6.8-2c4.5-1.7,9.3-2.2,14-3.3c1.1-0.1,2.3,0.2,3.4-0.4c0.6-0.3,1.3-0.3,2-0.3c1.6,0,3.2,0.1,4.7-0.3
		c5.8-0.5,11.6-0.5,17.5,0c1.6,0.4,3.2,0.3,4.8,0.3c0.5,0,1.1,0.2,1.4,0.6c1.4,1.7,0.1,3.8,0.6,5.6c0.8,4,0.4,8.1,0.1,12.1
		c-0.1,1.7-0.3,3.4-0.4,5.2c-0.6,9.6-1.2,19.2-2.1,28.8c-0.3,3.3-0.4,6.6-0.9,9.9c-0.3,2.4-1.4,3.2-3.7,3c-7-0.4-13.6,1.1-19.4,5.3
		c-1.9,1.5-3.5,3.2-5.1,5c-6.1,7.9-8.5,17.1-10,26.7c-0.5,3.1-0.7,6.2-0.8,9.3c-0.1,2.8-0.1,2.8,2.7,2c0.8-0.2,1.6-0.5,2.4-0.8
		c2-0.4,4-0.8,6-1.4c2.1-0.8,4.2-1.4,6.4-1.9c4.7-1.7,9.7-2.8,14.4-4.5c0.7-0.3,1.5-0.7,2.4-0.1c0.4-0.1,0.9,0,1.2-0.2
		c2.5-1.4,3.4-0.3,3.4,2.2c0.3,1.7-0.2,3.4,0.3,5l0,0c1.2,1,1,2.5,0.9,3.8c-0.7,11.1-1.2,22.2-3.7,33.1
		c-2.4,10.5-5.4,20.7-11.8,29.6c-1.7,1.7-3,3.9-4.9,5.6c-4.1,4.1-8.8,7.4-14,10.1c-1.5,0.7-2.9,1.5-4.4,2.1
		c-2.4,1.1-4.9,1.8-7.1,3.3c-1.8,2.3-0.9,5.2-1.2,7.7c-0.4,3.6-0.8,7.3-0.8,11c-0.7,9.3-1.4,18.5-2.1,27.8c-0.2,2-0.3,3.9-0.3,5.9
		c-0.1,0.7-0.1,1.5-0.3,2.2c-0.8,2.5-0.1,5.1-0.5,7.7c-1.1,3.4-0.6,7-0.9,10.5c-0.6,6.4-1.1,12.7-1.4,19.1c0,0.9,0.1,1.9-0.1,2.8
		c-1.1,3.4-0.6,7-1,10.5c-0.8,6.3-0.9,12.7-1.4,19.1c0,0.8,0.1,1.5-0.1,2.2c-1.1,3.7-0.5,7.6-1,11.4c-0.7,5.3-0.8,10.7-1.4,16.1
		c0,0.5,0,1.1,0,1.6c-0.9,6.3-1.4,12.7-1.9,19.1c-0.5,6.6-3.5,12-7.5,17.1c-1.9,2.3-3.8,4.7-6.3,6.4c-6.2,5.1-13.6,7.4-21.1,9.7
		c-14,4.3-28,8.6-41.9,13.1c-2.1,0.7-4.1,1.6-6.3,1.3c-2.6,0-4.8,1.6-7.5,2v-5c-0.5-0.5-0.6-1.2-0.4-1.9c0.8-1.8,0.3-3.7,0.4-5.5
		c0-0.8-0.1-1.7,0.3-2.5c0.7-1.8,0.2-3.7,0.4-5.6c0-0.9,0.3-1.7,0.4-2.5c0.5-1.8,0.1-3.7,0.3-5.6c0.2-0.8,0.3-1.7,0.3-2.5
		c0.5-2,0.1-4.1,0.2-6.1c0-0.9,0.2-1.7,0.3-2.5c0.6-1.6,0.2-3.4,0.3-5c0-0.9-0.1-1.7,0.1-2.5c0.9-1.8,0.3-3.7,0.5-5.5
		c0-0.9,0.1-1.7,0.4-2.5c0.5-1.8,0.1-3.7,0.3-5.6c0-0.9,0.3-1.7,0.4-2.5c0.5-2,0.1-4.1,0.2-6.1c0-0.7,0-1.4,0.3-2
		c0.6-1.8,0.2-3.7,0.3-5.6c0-0.8-0.1-1.7,0.3-2.5c0.7-1.8,0.2-3.7,0.3-5.6c0-0.9-0.1-1.7,0.3-2.5c0.7-1.8,0.2-3.7,0.3-5.6
		c-0.1-1,0.3-2,0.4-3c0.5-1.7,0.2-3.4,0.3-5.1c0-1-0.1-2.1,0.3-3.1c0.7-1.8,0.2-3.7,0.4-5.6c0-0.9,0.1-1.7,0.4-2.5
		c0.5-1.8,0.2-3.7,0.3-5.6c0-0.7,0-1.4,0.3-2c0.6-2,0.2-4.1,0.3-6.1c0-0.9,0.1-1.7,0.4-2.5c0.5-1.7,0.2-3.4,0.3-5.1
		c0-0.9,0-1.7,0.1-2.6c0.9-2.1,0.4-4.2,0.5-6.3c0.8-6,1-12.1,1.5-18.1c0.6-1.9,0.2-3.9,0.3-5.8c0-0.9,0-1.7,0.1-2.6
		c0.8-1.8,0.5-3.7,0.5-5.6c0.1-0.8-0.1-1.8,0.7-2.4c0.7-2.7,0.6-5.4,0.6-8.1c0.5-3-0.8-5.9,0-8.9c0.3-1-0.5-1.2-1.4-1
		c-1,0.2-2,0.6-3,1c-7.6,2.3-15,5.1-22.5,7.4c-0.6,0.2-1.2,0.2-1.9,0c-1.9,0.6-3.8,1-5.6,1.7c-2.1,0.9-1.8-0.5-1.9-1.7
		c-0.5-3.1-0.1-6.2,0.1-9.2c0.6-6.8,0.9-13.6,1.5-20.3c0.5-2.1,0.2-4.3,0.3-6.5c0-0.9-0.1-1.8,0.1-2.7c0.9-2.2,0.3-4.5,0.5-6.8
		c-0.1-1.1,0.3-2.1,0.4-3.1c0.5-2.3,0.1-4.6,0.3-6.8c0-0.7,0.1-1.4,0.7-1.9c2-16.5,12.3-25.9,26.9-31.7c1-0.4,2.1-0.9,3.1-1.3
		c1.2-1.2,2.6-1.4,4.2-1.3c1.8-0.4,3.5-0.8,5.3-1.2c0.2-7.6,1-15.1,1.7-22.6c0.5-1.1,0.5-2.3,0.5-3.4c0.1-0.6,0.3-1.2,0.3-1.9
		c0.4-1,0.2-2.1,0.3-3.2c0.1-0.3,0.2-0.6,0.3-0.9c0.4-1.1,0.2-2.2,0.3-3.3C731.5,285.9,731.3,283.1,733,280.8"/>
	<path class="st1" d="M669.9,342.5c1.3-0.2,1.4,0.5,1.4,1.6c-0.1,1.7-0.1,3.4-0.2,5.1c1,4.4,0.1,8.9-0.2,13.3
		c-0.5,6.2-0.8,12.4-1.5,18.6c-1,3.6-0.4,7.4-0.9,11.1c-0.8,5.8-0.8,11.7-1.4,17.6c0,3.6-0.8,7.1-0.6,10.7c-1,7.2-1.2,14.6-1.9,21.8
		c-0.6,7-0.9,14-1.8,20.9c-0.3,2.1,0,4.1-0.3,6.2c-0.8,2.2-0.3,4.5-0.5,6.7c-1,7.4-1.2,14.8-1.9,22.2c-0.7,7-1.1,14-1.7,21
		c-0.5,6.3-0.9,12.6-1.4,18.9c-0.8,9.7-1.6,19.4-2.3,29c-0.6,7.6-1.4,15.2-1.6,22.9c-0.8,5.5-1.2,11.1-3,16.4
		c-0.7,1.8-1.4,3.6-2.1,5.3c-1.8,3.3-3.7,6.5-6.4,9.2c-2.5,2.7-5.6,4.7-8.7,6.5c-9.3,4.7-19.5,7-29.3,10.2c-9.9,3.2-20,6.4-30,9.3
		c-1.8,0.5-3.6,0.6-5.4,0.9c-2,0.5-4,1-6,1.6c-0.6-1.6,0.2-3.1-0.1-4.6c-0.8-0.9-0.6-1.9-0.5-2.9c0.8-1.6,0.4-3.3,0.5-4.9
		c0-0.5,0-1,0-1.5c0-0.5,0.2-1,0.4-1.5c0.4-2.1,0-4.2,0.3-6.3c0.6-4.8,0.8-9.7,1.1-14.5c0.4-6.1,1-12.1,1.5-18.2
		c0.3-3.2,0.1-6.4,0.5-9.6c0.8-1.9,0.3-3.9,0.5-5.9c0-1.1,0-2.1,0.1-3.2c0.7-1.6,0.5-3.4,0.5-5.1c0-1-0.1-2.1,0.3-3.1
		c0.7-1.9,0-4,0.6-5.9c0.7-13.3,2-26.5,2.9-39.8c0.6-8.9,1.1-17.9,2.1-26.8c0.5-1.9,0.2-3.9,0.3-5.9c0.2-0.9,0.3-1.7,0.3-2.6
		c0.5-2,0.1-4.1,0.2-6.2c0-0.7,0-1.4,0.3-2c0.6-1.8,0.3-3.7,0.4-5.6c0-0.9,0-1.7,0.1-2.5c0.9-1.8,0.3-3.7,0.5-5.5c0-0.7,0-1.4,0.3-2
		c0.7-2,0.1-4.1,0.4-6.1c0.2-0.8,0.3-1.7,0.3-2.5c0.5-2,0.1-4.1,0.2-6.1c0-0.7,0-1.4,0.3-2c0.6-1.8,0.2-3.7,0.3-5.6
		c0-0.9-0.1-1.7,0.3-2.6c0.6-1.9,0.2-3.8,0.3-5.8c0.6-5.2,0.8-10.5,1.3-15.8c1-9.8,0.8-19.8,3.1-29.5c0.9-4,2.1-8,5-11.1
		c2.2-2.7,4.4-5.2,7-7.6c0.4-0.6,0.6-1.6,1.7-1.4c1.8-1,3.5-2,5.3-2.9c0.7-1.7,2.3-1.6,3.7-2.1c1.2-0.5,2.5-0.7,3.6-1.5
		c4.2-1.1,8.1-2.9,12.4-3.4c10.9-3.3,21.8-6.5,32.7-9.8c3.9-1.2,8-2,11.8-3.8C666.6,342.9,668.1,342.4,669.9,342.5"/>
	<path class="st2" d="M636.2,319.5c-11.3-0.4-21.6-4-31.1-9.7c-19.1-11.4-30.2-28.3-33.6-50.2c-0.2-1-0.1-2.1-0.1-3.1
		c0-6,0-12.1,0-18.1c1.8-27.1,18.5-52.6,46.6-59.5c2.1-0.5,4.2-1.1,6.4-1c5.2-0.1,10.4,0,15.5,0c3.2-0.2,6.3,1,9.8,1.4
		c-2.2-5.5-6.3-8.4-11.2-10.1c-10.7-3.7-21.3-2-31.7,1.5c-4.4,1.5-8.5,3.7-12.7,5.8c4-5.7,9.2-10.2,15.2-13.5
		c4.9-2.2,9.6-4.7,14.8-6.1c1.5-0.4,3-0.9,4.5-1c0.4,0,0.9,0,1.3,0c-0.5,0-1,0-1.5-0.1c-0.2,0-0.4-0.2-0.5-0.3
		c1-0.8,2.1-0.5,3.2-0.6c3,0.5,5.9-0.6,8.9-0.6c5,0,9.9,0.4,14.8,0.6c11.3,1.6,21.6,5.9,30.8,12.6c17.6,12.9,27,30.3,28.5,52
		c1.4,19.1-2.1,37.1-13.6,52.8c-9.2,12.6-21.4,20.6-37,23c-7.1,0.8-14.2,0.4-21.3,0.1c-2.2-0.3-4.4-0.6-7-1
		c3.3,7.1,9.1,10.3,16,11.4c14.1,2.3,27-1.4,39.1-8.6c0.7-0.2,0.8,0.1,0.7,0.7c-10.9,12.9-24.8,20.1-41.5,21.8c-0.5,0.1-1,0-1.5,0
		C644.1,319.4,640.2,319.4,636.2,319.5"/>
	<path class="st3" d="M803.3,474.1c0.1-0.8,0.1-1.6,0.2-2.5c0.9-1.3,0.5-2.8,0.6-4.2c0.6-8.6,2.1-17.1,1.7-25.7
		c0-2.6-0.1-5.1,0.6-7.6c0.8,1.3,0.2,2.7,0.5,4.7c-0.3-2.5,0.2-4.4-0.4-6.4c0.7-10.2,1.4-20.4,2.2-30.6c0.1-1.2,0.3-2.5,0.4-3.7
		c0.9-2.5,1.1-5.2,1.1-7.8c0-3.1,1-6.1,0.7-9.2c-0.1-1,0.7-1.7,1.1-2.5c2.2-1.3,4.5-2.3,7-3c1.6-0.2,3.2-0.6,4.2-2
		c4.9-2.9,9.6-6.1,13.8-9.9c1.9-1.3,3.5-2.8,4.3-5c9.5-13.8,12.4-29.6,14.5-45.8c0.9-6.9,0.9-13.9,1.1-20.8c6-2.6,6.4-2.6,6.6,4.6
		c0.5,19.9-1.8,39.5-9.6,58.1c-5.8,13.6-16.6,22.2-30.1,27.6c-1.6,0.7-3.3,1.3-4.9,2c-1.1,0.5-1.8,1.3-1.9,2.6
		c-0.8,11.6-1.6,23.2-2.5,34.9c-0.7,9.2-1.5,18.3-2.3,27.5c-0.7,9.1-1.4,18.1-2.1,27.2c-0.8,10.5-1.5,21-2.3,31.5
		c-1,13-2.2,25.9-3.3,38.8c-0.6,6.2-0.7,12.5-2.2,18.4c-2,7.8-7.2,13.8-13.6,18.7c-6.4,4.9-14,6.9-21.5,9.2
		c-11.4,3.6-22.8,7.2-34.3,10.8c-6.4,2-12.8,4-19.7,6.1c0.5-2.9-0.4-5.6,0.8-8.3c11.7-3.8,23.4-7.5,35.1-11.3c6.3-2,12.7-3.9,19-5.8
		c5.5-1.7,10.4-4.4,15.1-7.7c2.8-1,4.1-3.5,5.9-5.6c4.8-5.6,7.5-11.9,7.9-19.4c0.3-5,0.8-10,1.4-15.1c0.1-0.6,0.2-1.2-0.2-1.8
		c0-0.4,0-0.8,0.1-1.2c0.9-1.7,0.8-3.6,0.9-5.4c0.5-7.6,1.8-15.1,1.5-22.7c0-0.6,0.1-1.2,0.1-1.9c1-2.2,0.9-4.7,1-7
		C802.3,489.4,803.8,481.8,803.3,474.1"/>
	<path class="st3" d="M661.2,476c-0.1-2.2,0.1-4.3,0.5-6.4c0.8,1,0.1,2.3,0.4,3.1c0.1-6.3,0.9-12.8,1.3-19.3
		c0.4-6.9,1-13.8,1.5-20.7c0.3-4.1,1.1-8.1,0.6-12.3c-0.1-3.5,0.3-7.1,0.7-10.6c1-2,0.9-4.2,0.9-6.3c0.3-7.5,1.9-14.9,1.3-22.4
		c0.6-10.7,1.3-21.3,2.5-31.9c1.1,1.6,2.3,0.1,3.4,0.1c1.1-0.1,2.2-0.5,3.5-0.9c0.3,6-0.6,11.7-1,17.5c-0.8,11.8-1.7,23.7-2.7,35.5
		c-0.7,9.4-1.6,18.7-2.3,28.1c-0.7,9.3-1.4,18.5-2.1,27.8c-0.7,8.9-1.4,17.7-2.1,26.6c-0.8,10-1.5,19.9-2.3,29.9
		c-0.7,8.9-1.5,17.7-2.2,26.6c-0.8,9.8-1.3,19.6-2.3,29.3c-1.4,13.5-1,27.3-4.4,40.6c-3.3,13-11.4,21.3-24.2,25.6
		c-11,3.7-22,7.1-33.1,10.7c-9.6,3.1-19.2,5.9-28.8,8.8c-1.7,0.5-1.9,0.1-2-1.6c-0.1-1.8,1.3-4-0.6-5.6c15.2-4.8,30.4-9.5,45.6-14.4
		c6.5-2.1,13.1-3.9,19.3-7c3.5-1,6.1-3.2,8.2-6.1c2.3-2.8,4.3-5.8,6.1-8.9c1.4-1.3,2-2.9,2-4.8c1.4-5.4,2.2-10.9,3-16.4
		c0.2,0.2,0.2,0.6,0.3,0.8c0.2,0.3,0.1,0.1,0.1-0.1c0.8-13,1.8-26,2.9-39c1-11.9,1.9-23.9,2.9-35.9c0.6-6.8,1.1-13.6,1.5-20.4
		c0.4-6.1,0.9-12.2,1.4-18.2C661.4,477.2,661.6,476.5,661.2,476"/>
	<path class="st3" d="M451,444.8c1.1-3.5,2.4-6.9,4.2-10.2c0.9-0.3,1-0.9,0.8-1.7c1-2.9,2.5-5.7,4.3-8.2c1.5-1.6,2.6-3.4,3.1-5.5
		c2-3.5,4.2-6.9,7-9.9c1.3-0.7,2.3-1.6,2.6-3.1c12-14.1,27-23.3,45.5-26.2c8.3-0.6,16.7-1,25-0.1c3.4,0.2,6.5,1.7,9.9,2.5
		c0.3-2.3,0.5-4.5,0.8-6.7c1-1.2,0.4-2.6,0.6-3.9c0.9-6,1.1-12.1,1.5-18.1c0-0.4,0-0.8-0.3-1.1c0.8-11.9,1.6-23.8,2.5-35.7
		c0.7-9.7,1.6-19.4,2.4-29.1c7.1,0,7.1,0,6.6,6.9c-1.1,15.8-2.2,31.7-3.4,47.5c-1.1,14.6-2.4,29.2-3.4,43.8c-0.2,2.5-1,2.5-3,1.8
		c-12.5-4.1-25.1-3.6-37.8-0.6c-16.4,3.8-29.4,12.9-40.2,25.4c-8.1,9.4-14,20.2-18.9,31.6c-6.8,15.6-10.4,32-12.5,48.7
		c-2,15.9-2.7,32-0.6,48c1.3,10.5,4.1,20.7,9.6,29.9c0.4,0.6,1.5,1.2,0.3,2c-2-1.3-3.5-3-4.8-5c0-1.4-1.1-2.1-2-3
		c-5.2-7.6-7.5-16.3-9.1-25.2c-2.4-13.6-2.4-27.2-1.2-40.9c0-0.3,0.2-0.6,0.3-0.9c0.2,0.1,0.3,0.3,0.3,0.5c0.1,1.2,0.1,2.4,0.1,2.9
		c-0.1-8.9,1.5-18.3,3.1-27.7c1.5-8.9,4-17.6,6.8-26.1C450.9,446.4,451.2,445.7,451,444.8"/>
	<path class="st3" d="M529.5,657.4c2.8-1.6,3.6-4,3.6-7.2c0-3.6,0.6-7.2,0.9-10.8c0.9-2.2,0.8-4.6,0.9-7c0.4-7.9,1.8-15.7,1.4-23.6
		c-0.1-3.8,0.3-7.5,0.8-11.2c1-1.9,0.8-4,0.9-6c0.3-5.5,1.3-11,0.8-16.5c0.3-3.5,0.5-7.1,0.8-10.6c2.4-2.2,4.8-4.4,7.7-7.1
		c-0.6,8.7-1.2,16.9-1.7,25.1c-0.7,10.1-1.5,20.2-2.3,30.2c-0.8,10.1-1.6,20.1-2.3,30.2c-0.4,5.1-0.7,10.3-1.1,15.4
		c-0.1,1.9-0.9,3.3-2.7,4.5c-15.3,10.6-31.6,18.9-49.6,23.9c-25.9,7.2-51,5.8-74.9-7.4c-2.4-1.3-4.7-3-7.1-4.4
		c-0.9-0.5-1.2-1.1-0.7-2c1.5,0.8,3,1.6,4.5,2.5c2.5,2,5.5,3.1,8.6,3.9c8.2,2.4,16.4,4.7,25,5.3c1.8,0.1,3.7,0.3,5.5,0.4
		c-0.4,1.4-1.3,0.8-2.1,0.7c3.5-0.2,7-0.4,10.4,0.1c-0.8,0-1.7,0.7-2.1-0.8c10-0.5,19.7-2.5,29.3-5.1c2.2-0.1,4.3-0.5,6-2
		c0.5-0.2,0.9-0.5,1.4-0.7c4.8-0.5,8.9-3.1,13.1-5c3-1.4,6.2-2.5,8.7-4.8c3.1-1.8,6.3-3.7,9.4-5.5
		C525.4,661,527.6,659.5,529.5,657.4"/>
	<path class="st3" d="M832.5,250.8c6-5.3,13.3-6.5,20.9-6.1c2.2,0.1,2.3-0.5,2.4-2.2c1-12.8,2.1-25.6,3.1-38.4
		c1-4.4,1.2-8.8,1.2-13.3c0-1.5-0.3-3.1,1.2-4.2c5.9,0.9,5.7,0.9,5.4,7c-0.7,14.2-1.8,28.4-2.9,42.6c-0.3,4.2-0.9,8.4-1.2,12.6
		c-0.1,1.7-0.8,2.1-2.3,2.1c-2.4,0-4.8-0.2-7.2,0.1c-12.6,1.7-19.8,9.8-24.3,20.9c-2.6,6.5-3.6,13.3-4.9,20.1
		c0.4,0.8-0.5,1.1-0.7,1.8c-1.6,0.5-3.2,0.9-4.7,1.5c-1.6,0.7-2,0.2-1.9-1.3c0.7-11.6,2.2-23.1,7.9-33.5c1-1.9,2.1-3.8,3.7-5.3
		C830,254.1,831.5,252.6,832.5,250.8"/>
	<path class="st4" d="M508.4,747.9c10.7-0.7,21.3-1.8,31.9-3.5c2.4-0.4,4.9-0.6,7.4-0.9c2.9,0.9,5.5-0.6,8.1-1.1
		c4.6-0.9,8.3,0.3,11.3,3.8c0.3,0.4,0.6,1.2,1.1,1c4.3-1.3,2.6,2.4,3.4,3.5c-0.6-1.9,0.9-1.5,2.1-0.8c2.5,1.5,5.7,1.9,7.3,4.8
		c0.5,0.9,1.1,1.8,0.3,2.5c-1.6,1.5,1.1,0.6,0.7,1.3c-2.3,1.2-4.9,0.9-7.2,1.1c-6.9,0.6-13.8,1.1-20.7,1.6c-9,0.6-18,0.2-27,0.5
		c-0.2-0.4-0.6-0.7-0.6-1.1c0.2-5.3-4.6-5.2-7.6-7.1c-0.5-0.3-1-0.5-1.3-1c-0.2-0.3-0.3-1-0.4-0.9c-2.9,2.6-2.7-1.7-4.3-2
		c-1.9-0.3-3.9,0.8-5.8,0c-0.3-0.1-0.5-0.3-0.7-0.7C506.6,747.8,507.9,748.6,508.4,747.9"/>
	<path class="st5" d="M726.1,710.5c-7.6,4.8-15.5,8.9-23.7,12.4c-1.1,0.4-1.7,0.2-0.9-1c0.4-0.7,1.3-1,2.1-1.4
		c1.7-0.9,3.5-1.7,5.2-2.8c0.7-0.5,1.4-0.8,1-1.9c-0.5-1.3-1,0.3-1.6-0.2c-1.3-1-3.1-1.2-3.8-2.9l-5.2-3.6c-2.3-2.4-5.2-3.1-8.3-3.7
		c-1-0.2-2.1-1.4-3.3-2.1c-2.3-1.3-4.6-2.9-7.4-0.9c-0.6,0.4-1.9,0.7-2-0.9c7.9-4.2,15.8-8.3,23.7-12.5c2.1-0.2,3.9-1.5,5.5-2.6
		c1.8-1.1,3.3-0.8,4.6,0c2.4,1.5,5.2,2.5,6.9,5c0.3,0.5,0.4,0.1,0.6,0.2c2.8,0.6,5.4,2,7.5,3.8c1.9,1.6,3.5,3.2,6.1,3.5
		c0.6,0.1,1.2,0.7,1.8,1.2c2.3,1.6,2.2,3.3,0,4.8C731.9,707.1,728.7,708.4,726.1,710.5"/>
	<path class="st6" d="M814.5,601.9c7.1-7.9,14.1-15.8,21.2-23.7c2.1,0.7,0.5,1.7,0.1,2.5c-1.4,2.5-0.8,4.1,2,4.7
		c0.4,0.1,0.8,0.2,1.2,0.4c1.4,0.7,1.7,3.2,4,2.3c1.6,3.2,5.4,3.4,7.9,5.3c1.6,1.2,4,2.2,6.2,2.9c1,0.3,1.2-0.8,1.8-1.4
		c1-1.1,1.8-2.6,3.7-2.1c0,0,0.1,0.2,0.1,0.2c0,0.1-0.1,0.2-0.1,0.3c-4.6,6.4-9.8,12.3-15,18.1c-5.1,5.7-10.1,11.4-15.7,16.7
		c-1.8-0.9-0.4-1.9,0.2-2.5c1.5-1.7,3.1-3.3,4.6-5c1.4-1.6,2.4-3-0.2-4.3c-0.9-0.5-1-1.5-2.5-1.7c-1.7-0.2-3.2-2.1-4.3-3.8
		c-0.4-0.5-0.4-1.1-1.1-0.2c-0.4,0.4-1,0.3-1.3-0.2c-0.9-1.1-1.3-3-3.4-2.3c-1.4-3.1-5.1-2-7.3-3.8
		C815.7,603.5,814.3,603.5,814.5,601.9"/>
	<path class="st7" d="M642.5,746c-9.8,3.3-19.8,5.7-29.9,7.5c-0.9,0.4-1.7,0.6-2.6-0.2c0.5-1.6,2.1-1.1,3.3-2.1
		c-1.7-1.3-3-2.6-5.1-3.6c-2.6-1.2-5-3.2-7.4-5c-1.2-0.9-2.2-1.9-3.8-1.9c-1.1,0-1.9-0.6-2.7-1.4c-2.3-2.2-4.9-2.8-8-2.1
		c-1.8,0.4-3.8,1.5-5.6,0c1.6-1.6,3.8-1.5,5.7-2c8.8-2.3,17.5-4.7,26.2-7.5c0.8-0.2,1.6-0.4,2.4-0.5c4.5-0.9,8,1.2,11.6,3.7
		c2.7,1.9,5.5,3.7,8.3,5.3c1.9,1.1,3.2,2.8,5.6,3.4C642.8,740.4,643.4,743.4,642.5,746"/>
	<path class="st8" d="M508.4,747.9c-0.4,0.3-0.8,0.6-1.5,1c1.4,0.1,2.6,0.3,3.9-0.1c2.6-0.8,4.5-0.2,4.3,3c1.4,0.2,1.5-1.1,2.3-1.5
		c0.1,0,0.2,0.1,0.2,0.1c2,3.7,6.3,3.9,9.2,6.2c1.3,1,0.1,3.3,0.3,5c-30.1,0.1-87-9-100.2-16.1c3.8,0,7.1,0.9,10.4,1.3
		c5.9,0.8,11.9,1.4,17.9,1.5c10,0.2,20,1.3,30,0.4c2.3-0.2,4.6-0.3,6.8-0.1C497.4,748.9,502.9,747.7,508.4,747.9"/>
	<path class="st9" d="M631.2,721.7c9.4-3.7,18.7-7.5,28.1-11.2c0.4,0.3,0.9,0.2,1.2,0c3.8-2.8,7.6-1.6,11.5-0.2c1.1,0.4,1.8,0.8,2,2
		c0.1,0.8,1.9,0.4,1.2,1.8c0.4-0.1,0.7-0.1,1.2,0c2,0.6,3.3,1.8,4.5,3.4c1.5,1.9,2.9,3.9,5.9,2.9c0.7-0.2,1.3,0.5,1.8,1.1
		c0.6,0.6,1.1,1.3,1.8,1.7c3.5,2.1,3.5,3-0.2,5.1c-0.2,0.1-0.3,0.2-0.3,0.5c-5.6,3.2-11.8,5.2-17.8,7.6c-3,1.1-5.8,2.6-9,3
		c-0.4,0.2-0.8,0.4-1.1,0c-0.5-0.5,0-0.9,0.4-1.3c1-1,2.4-1.1,3.7-1.6c1.5-0.6,1.4-1,0.6-2.4c-2.1-3.5-6.2-4.3-9-6.8
		c-0.5-0.5-1-0.2-1.3,0.3c-1.9,2.4-2.9,0.8-3.8-0.8c-1.7-3-3.9-5.3-7.2-6.6c-1.4-0.6-2.5-0.7-3.8-0.1c-2.5,1-5,1.9-7.6,2.7
		C632.9,722.8,631.6,723.5,631.2,721.7"/>
	<path class="st10" d="M580.7,737.3c2.1,0.2,4.1-0.4,6.1-0.9c3.1-0.6,6.2-0.3,8.1,2.5c1.1,1.7,2.5,0.6,3.7,1.3
		c3.1,2,6.4,3.9,9.1,6.4c1.9,1.8,0.8-1,1.5-0.7c0.5,3.1,4.7,2.9,5.5,5.9c-1.1,1.1-2.8,0.4-4,1.3c0.6,0.6,1.3,0.2,1.9,0.3
		c-6.4,1.9-13,2.7-19.6,3.7c-3.6,0.6-7.3,1.4-11,1.3h-3c0.8-1.2,3-1.9,2-2.5c-1.4-0.9-0.9-3.6-3.3-3.2c-1.8,0.3-2.1-2-3.8-2.1
		c-0.3,0-2.1,1-1.8-1c-0.1,0.8-0.1,1.7-0.2,2.5c-0.1-1.9-1.7-3.2-1.7-5.7c-1.5,2.4-2.3,2.4-3.6,0.3c-1.4-2.5-6.7-5-10.3-4
		c-2.8,0.7-5.6,2.3-8.6,0.7c8.7-1.7,17.3-3.5,26-5.2C576,737.8,578.3,737.1,580.7,737.3"/>
	<path class="st11" d="M631.2,721.7c0.7,0.9,1.4,0.4,2.2,0.2c2.1-0.7,4.3-1.5,6.5-2.1c1.5-0.4,2.7-2.2,4.2-1.4
		c3.1,1.6,6.2,3.2,8.2,6.3c2.2,3.6,2.2,3.6,4.9,0.3c1,2.2,2.6,3.2,5,3.8c2.8,0.8,3.9,4.2,6.4,5.9c0.9,0.6,0,1.6-1.1,1.9
		c-1.8,0.6-3.6,1-5.2,2.2c0,0,0.1,0.2,0.2,0.2c0.2,0.1,0.4,0.1,0.6,0.1c-5.7,3-12,4.1-17.9,6.2c-0.9,0.3-1.8,0.4-2.7,0.7
		c-0.4,0-0.9,0.1-1.2-0.1c-0.5-0.4-0.1-0.7,0.3-0.8c2.8-1,0.4-2.3,0-3.2c-0.6-1.3-1.4-2.8-3.3-2c-0.2,0.1-0.4,1.1-0.6,0.3
		c-1-3.6-4.7-4.2-7.1-5.8c-3.5-2.4-7-5-11.1-6.6c-1.4-0.6-3,1.1-4.4-0.4C620.4,725.4,625.8,723.6,631.2,721.7"/>
	<path class="st6" d="M383.7,299c-7.1,11-14.2,22-21.3,32.9c-1.7-0.3-0.8-1.4-0.6-2.1c0.6-1.8,1.6-3.4,2.7-4.9
		c1.2-1.6,0.9-2.6-0.5-4c-2.4-2.2-5.6-3.3-7.7-6c-3.4,1.3-4.9-2.3-7.6-3c-1.4-0.4-2.7,0.1-4-0.2c0,0-0.1-0.2-0.1-0.2
		c0-0.1,0.1-0.2,0.1-0.3c5.9-11,12.7-21.6,20-31.7c0.9,1.2,1,1.2,0.4,2.3c-0.8,1.4-1.6,2.7-2.6,3.9c-1.4,1.9-0.4,3.1,1,4.2
		c0.5,0.4,1.2,0.3,1.7,0.7c3.3,2,6.3,4.4,9.9,5.7c1.4,0.5,1.7,2,3.2,2.7c2.2,1.1,3.3-0.4,4.9-0.7c0.1,0,0.2,0.1,0.2,0.2
		C383.8,298.6,383.8,298.7,383.7,299"/>
	<path class="st12" d="M726.1,710.5c-0.7-1.3,0.6-1.2,1.1-1.6c2.5-1.6,5-3,7.6-4.5c1.1-0.7,1.3-2,0.7-2.6c-1.1-1.1-2.5-2.1-4-2.3
		c-1.9-0.3-3.3-0.5-4-2.6c-0.4-1.3-2.3-0.8-3.4-2.1c-0.7-1-2.9-1.5-4.5-2.2c-0.9-0.4-0.1,1-1,1.1c-0.1-3.3-3.1-3.9-5.3-4.7
		c-1.3-0.4-0.2-1.7-1.7-1.9c-2.8-0.5-4.8,0.6-7,1.6c-0.9,0.4-1.7,1.7-3,0.6c6.2-3.7,12.5-7.5,18.7-11.2c1.9-0.1,3.2-1.4,4.5-2.4
		c1.5-1.2,3-1.2,4.6-0.2c4.9,3.2,10.1,6,15,9.1c2.9,1.8,5.9,3.6,8.9,5.1c2.6,1.3,2.5,2,0.2,3.5c-1.4,0.9-2.9,1.5-3.9,3
		C742.2,701.5,734.3,706.3,726.1,710.5"/>
	<path class="st13" d="M783.5,671.9c-4.9,4.3-10.1,8.3-15.6,11.8c-1.3-0.1-0.8-0.9-0.4-1.4c1.7-1.8,0.2-2.5-1-3.2
		c-2.3-1.3-4.6-2.7-7-3.8c-3.5-1.6-6.3-4.3-9.7-6c-2.9-1.4-5.3-3.9-8.9-3.5c-0.4,0-0.7-0.4-0.4-0.9c4.6-3.3,9.2-6.6,13.8-9.9
		c0.2,0.1,0.5,0.2,0.6,0c4.2-4.8,8.3-2.5,12.7-0.1c6,3.2,11.4,7.5,17.4,10.7c2.4,1.3,2.4,2.5,0.2,4.3
		C784.4,670.5,783.6,671,783.5,671.9"/>
	<path class="st14" d="M931.2,463.5c-1.4,5.3-2.7,10.6-5,15.6c-1.2,1.8-1.9,3.8-2.5,5.9c-0.4,1.3-0.9,2.4-2.3,2.4
		c-1.2,0-2.8-0.2-3.5,0c-1.9,0.6-1.5-0.7-2-1.4c-0.1-0.3,0-0.5-0.6-0.8c-1.8-0.8-2.6-2.7-3-4.6c-1.6,2.4-3.4,0.2-5.1,0.2
		c-0.7,0-1.1-1.1-1.5-1.9c-0.9-1.5-1.5-3.1-4-3c-1.5,0-1.7-1.7-1.2-3.2c0.8-2.6,2.5-5,2.6-7.9l6.8-18.1c2,0.5,1,1.9,0.7,2.9
		c-0.6,1.8,0,2.8,1.5,3.9c4.9,3.6,10.5,6.1,15.7,9.2c0.7,0.4,1.3,0.7,1.9-0.2c0.3-0.5,0.7-1.2,1.4-0.6
		C931.7,462.3,931.6,463,931.2,463.5"/>
	<path class="st15" d="M825,635c-3.2,4.1-7.3,7.2-11,10.7c-1.5-3.2-4.4-4.5-7.4-6.1c-5.1-2.7-9.8-6.1-14.8-9.1
		c-2.4-1.4-4-1.2-5.7,0.6c-0.7,0.7-1.3,1.4-2.2,1.6c-0.6,0.2-1.3,0.2-1.2-0.8c6.4-5.8,12.9-11.7,19.3-17.5c4.7,1.9,9.9,3,13.6,6.9
		c0.4,0.4,0.8,0.8,1.3,0.8c4.3,0,6.2,3.9,9.3,5.8c2.9,1.7,2.7,2.2,0.4,4.6C826.1,633.2,825,633.7,825,635"/>
	<path class="st16" d="M689.9,728.6c-1.3-1.7,0.8-0.9,1.2-1.4c0.5-0.7,1.3-1.1,1.3-2.3c-0.1-1.9-1.4-0.1-1.7-0.5
		c-1.8-2.7-4.4-3.3-7.5-3.7c-1.4-0.2-3-2.3-3.7-3.9c-0.8-1.9-3.1-0.9-3.8-2.6c-0.1,0.4-0.2,0.8-0.6,2c-0.2-1.5-0.3-2.4-0.4-3.6
		c-0.4,0.8-0.6,1.3-0.9,2c0-3.7-2.1-4.3-4.9-4c-0.2,0-0.5,0.2-0.6,0.1c-2.5-3.6-5-0.4-7.4,0.2c-0.7,0.2-1.2,0.2-1.6-0.4
		c6.2-2.9,12.5-5.8,18.7-8.7c0.4,0.6,1.1,0.8,1.6,0.4c4.2-3.4,7.1,0.3,10.2,2c1,0.6,2.2,1.5,3,1.3c2.6-0.5,3.8,1.5,5.6,2.4
		c1.7,0.9,2.8,2.2,4.3,3.1c0.6,0.4,1.4,0.2,1.9,1.2c0.6,1.3,2.1,2.7,3.1,2.5c2.4-0.6,2.5,1.3,3.8,2.5c-3.3,1.8-6.5,3.5-9.7,5.2
		c-0.1,0-0.1,0.1-0.1,0.2c0.3,0.1,0.5,0.3,0.8,0.4C698.4,725.4,694.3,727.2,689.9,728.6"/>
	<path class="st17" d="M740.3,664.9c5.4,0.2,10.5,4.3,16,7.8c3.6,2.3,7.5,4.3,11.3,6.4c1.9,1,3.5,1.8,0.5,3.4
		c-0.4,0.2-0.8,0.7-0.2,1.2c-5.8,4.5-11.8,8.7-18.1,12.5c-0.5-1.8,1.2-1.8,2-2.4c0.9-0.8,2.1-1.3,3.4-2.1c-2.2-1.4-4.3-2.6-6.3-3.8
		c-1.8-1.1-3.8-1.9-5.4-3.2c-1.5-1.3-3.4-1.9-5-2.9c-3.2-2-6.5-3.9-9.7-5.9c-1.3-0.8-2.7-0.6-4,0.5c-1.2,1-2.4,2.6-4.5,1.8
		C727,673.7,733.7,669.3,740.3,664.9"/>
	<path class="st18" d="M903.2,464.8c1.2,1.2,0,2.3-0.3,3.4c-0.4,1.6-1.2,3.1-1.7,4.6c-0.5,1.7-0.4,1.4,1.5,1.9
		c1.4,0.3,3.2,1.5,3.3,3c0.3,3.2,3.2,2.3,4.8,3.3c1,0.7,0.9-1.2,1.5-2.5c0.3,4,4.1,5.3,4.8,8.6c0.6-0.1,0.2-0.8,0.5-1.2
		c0.3,0.9,1.6,0.1,1.9,1.1c0.4-0.9,1.2-0.4,1.8-0.5c1.9,0,1.5-1.5,1.9-2.6c0.7-2,1.3-4,2.6-5.7c0,0,0.2,0.1,0.2,0.1
		c0.1,0.2,0.1,0.4,0.1,0.6c-2.3,8.4-5.8,16.3-9.1,24.3c-0.6,1.5-0.9,3.2-2.1,4.4c-3.4-1-6.2-3-9.1-4.8c-1.9-1.2-3.6-2.8-5.7-3.6
		c-2.7-1.1-4.6-3.5-7.5-4.5c-1.5-0.5-1.3-1.8-0.8-3.1c0.6-1.7,2.1-3.1,2-5.1C896.9,479.3,900.1,472.1,903.2,464.8"/>
	<path class="st5" d="M492.2,189.8c-4,3.1-7.9,6.2-11.9,9.2c-3.4,1.4-5.7,4.3-8.7,6.3c-1,0.7-2,1.4-3.1,2.1
		c-0.4,0.3-1.1,0.7-1.4,0.3c-1.4-1.8-3.6-2.1-5.2-3.4c-0.7-0.6-1.3-1.4-2.2-1.7c-3.6-1-6-3.5-8.1-6.4c-1.9-2.7,0.3-3.9,1.7-5.4
		c6.6-5.2,13.4-10.1,20.6-14.3c0.9-0.2,0.8,0.3,0.6,0.9c-0.3,0.9-1.5,1.1-1.8,2.1c1.8,1.6,4.7,2,5.3,4.8c0,0,0,0.1,0,0.1
		c1-2.4,2-0.5,3-0.1c1.8,0.8,3.5,1.8,5,3.1c1.3,1.1,2.8,1.7,4.6,1.3C491.4,188.7,492.3,188.5,492.2,189.8"/>
	<path class="st19" d="M782.8,631.9c1.7,1.2,2.1-0.7,2.8-1.4c2.2-2,3.7-2.6,6.7-0.6c5.1,3.2,9.9,7.1,15.4,9.4c2.5,1,3.8,3.3,6.4,4
		c2,0.5-1.5,1.5-0.1,2.4c-4.3,4.4-8.9,8.6-13.9,12.4c-2.3-4.3-6.7-6-10.5-8.4c-3.4-2.1-7.3-3.4-10.6-5.7c-3.3-2.3-5.2-2.1-8.5,0.3
		c-1.5,1.1-1.5,1.1-2.7,0.2C772.8,640.2,777.8,636.1,782.8,631.9"/>
	<path class="st20" d="M767.8,644.4c2.5,0.8,3-1.9,4.6-2.7c1.3-0.7,1.9-0.6,3.2-0.1c2.7,0.9,5.2,2.3,7.5,3.8c3.7,2.4,8.3,3,11.3,6.5
		c0.7,0.9,1.9,1.6,3,1.9c2.2,0.7,3.1,1.9,2.8,4.2c-4.1,4.4-9,7.9-13.7,11.6c-1,0.8-2,1.5-2.9,2.3c-0.8-1.4,0.6-1.8,1.3-2.2
		c2.5-1.6,1.3-2.5-0.4-3.4c-3.5-1.9-6.6-4.4-10.1-6.1c-2.3-1.1-3.5-4-6.6-3.7c-1.2,0.1-1.3-2.9-3.4-1.7c-3.3-3.4-6.2-2.2-9.1,0.6
		c-0.3,0.3-0.8,0.1-1-0.3C758.7,651.5,763.2,647.9,767.8,644.4"/>
	<path class="st15" d="M884.5,563.4c-3.6,5.8-7.5,11.6-11.8,16.9c-1.8,0.5-2.4,2.2-3.2,3.6c-0.9,1.4-1.6,1.7-2.9,0.7
		c-2.1-1.5-4.2-3-6.6-4.1c-0.9-0.4-1.6-1.8-2.9-0.5c-0.5,0.5-1-0.1-1.1-0.5c-1.3-3-4.3-4-6.9-5.4c-1.6-0.8-2.8-2.1-4.3-3
		c-1.2-0.7-0.9-1.7-0.8-2.8c5-6.8,10.1-13.7,15.1-20.5c1.3,0,0.9,0.9,0.7,1.5c-0.3,1-1,1.8-1.6,2.6c-2,2.8-1.6,3.6,1.6,4.9
		c2.7,1.2,5.2,2.9,7.7,4.5c2.9,1.8,6,3.3,8.7,5.3c2.7,1.9,3,1.6,4.9-1c0.9-1.2,1.3-3.2,3.5-2.7c0,0,0.1,0.2,0.1,0.2
		C884.6,563.2,884.5,563.3,884.5,563.4"/>
	<path class="st13" d="M878.9,515.9c2.3-4.2,4.5-8.3,6.8-12.5c2.2,0.6,0.9,1.9,0.4,2.8c-1,1.8-0.4,2.6,1.3,3.7
		c3.8,2.5,8.2,3.9,11.7,7.1c1.6,1.4,4.5,2.1,6.8,3.2c0.9,0.5,1.3-0.2,1.7-0.9c0.5-0.8,0.8-1.8,1.7-2.2c1.2-0.5,1.2,0.3,0.8,1.1
		c-1.8,3.8-3.2,7.7-5.6,11.2c-1.7,2.1-2.8,4.5-4.1,6.8c-2.1,3.9-1.9,4.2-6.1,1.9c-6.2-3.4-12.3-7-18.3-10.8c-1.6-1.1-2.2-2-1-4
		C876.4,521.1,878.2,518.8,878.9,515.9"/>
	<path class="st19" d="M884.5,563.4c-2.3-0.3-2.5,1.9-3,3.1c-1.4,3-3.4,2.9-5.3,1.3c-2.8-2.5-6.2-4.3-9.3-5.8
		c-2.9-1.4-4.9-4.4-8.6-4.4c-1.9,0-2.5-3-1.6-4.9c0.8-1.6,3.3-2.5,2.3-4.9c2.7-4,5.3-7.9,8-11.9c1-0.2,1.2,0.6,0.9,1
		c-2.1,2.8,0.4,4.4,1.9,5.1c6,2.8,10.8,7.7,17,10.2c1.9,0.8,2.8,0.6,3.6-1.1c0.4-0.8,0.9-2.1,2.3-1.3c0.1,0,0.1,0.2,0.1,0.2
		c0,0.1-0.1,0.2-0.1,0.3C890.3,555,887.4,559.2,884.5,563.4"/>
	<path class="st21" d="M825,635c-0.7-1.9,1.2-2.4,2-3.3c1.1-1.2,0.9-1.7-0.2-2.7c-2.2-1.8-5.3-2.5-6.5-5.5c-0.6-1.5-1,1.1-2.3,0.1
		c-2-1.4-4.2-2.5-5.8-4.3c-1.4-1.6-3.5-1.1-5.2-2.1c-1.6-0.9-3.2-2-4.9-2.8c4.2-4.2,8.3-8.3,12.5-12.5c2.2,2.1,5.2,2.9,8,3.6
		c0.3,0.1,0.8-0.2,0.9,0.4c0.2,1,0.9,1.4,1.8,1.3c2.4-0.3,1.4,2.4,3,2.9c0.8,0,0.5-1.2,1.1-1.5c1.1,2.7,3.6,4,5.7,5.9
		c0.1-0.8,0.2-1.3,0.3-2c0.2,0.1,0.4,0.2,0.4,0.3c-0.4,2.1,1.3,2.9,2.7,3.7c1.5,0.8,1.7,1.4,0.4,2.7c-2,2-3.9,4.2-5.8,6.4
		c-0.6,0.6-2.1,1-1,2.4C830.2,631,826.9,632.2,825,635"/>
	<path class="st20" d="M892.6,550.3c-2-0.7-1.4,1.4-2.1,2.1c-0.9,0.9-1.2,1.7-3,1c-5.4-2-9.2-6.3-14.3-8.6c-2.4-1.1-4.7-2.1-6-4.6
		c-0.5-0.9-1.2,0.6-1.8,0c0-1.7,2.8-2.3,1.6-4.4c4-6.6,8-13.3,12-19.9c0.5,3.1-2,5-3.3,7.3c-1.2,2.2-0.7,3,1.1,4
		c4.4,2.6,8.6,5.4,13.1,7.8c2.4,1.3,4.5,3,7.2,3.9c1.6,0.5,1.6-0.7,2-1.2c1.6-2.6,3-5.4,4.5-8.1c0.4-0.8,0.8-1,0.9,0.1
		C900.9,536.8,897.1,543.8,892.6,550.3"/>
	<path class="st21" d="M843.8,568.2c0.6,2.7,3.1,3.6,5,4.9c2.7,1.9,6.3,2.4,7.6,6c0.3,0.8,0.5,0.2,0.6-0.1c0.5-2,1.6,0.7,2.3-0.3
		c2.5,1.7,5.1,3.3,7.5,5.1c1.3,1,1.6,0.7,2.5-0.5c0.9-1.2,1.1-3.4,3.4-3.1c-3.4,4.3-6.1,9.1-10,13.1c-1.9-0.1-2.6,1.3-3.4,2.7
		c-0.7,1.2-1.2,2.3-3.2,0.8c-1.1-0.8-2.5-3.9-5-1.6c-0.6-0.7-0.8-1.5-1.7-2c-2.3-1.5-5.1-1.9-6.9-4.5c-1.3-1.9-0.7,1-1.3,1
		c-1.4-1.4-1.4-3.9-4.6-3.3c-1.9,0.3-2.8-4-1.4-5.8c0.5-0.6,1.9-1.1,0.7-2.2C838.4,574.9,841.1,571.6,843.8,568.2"/>
	<path class="st15" d="M369.8,272.6c3.7-5.2,7.6-10.2,11.8-15c1.8-0.1,0.9,1.8,2,2.6c4.1,2.8,8.1,5.5,12.7,7.4
		c1.6,0.7,2.4,2.2,3.8,3.2c1.2,0.8,2.1,2,3.7,0.5c0.4-0.4,1.2-0.2,1.1,0.8c-4.6,5.7-9.1,11.3-13.7,16.9c-6-5.1-12.9-8.7-19.8-12.3
		C369.4,275.6,369.2,274.4,369.8,272.6"/>
	<path class="st13" d="M413.5,224c1.8-2.2,3.9-4,6.2-5.7c5.9,3.4,11.6,7.3,17.5,10.9c1.8,1.1,3.3,2,5.4,0.8c0.4-0.3,1,0,0.9,0.8
		c-2.8,2.6-4.9,5.9-8.1,8.1c-3.1,1.1-4.4,4.2-6.8,6.1c-0.9,0.7-1.4,1.8-2.8,1.8c-0.3,0-0.6-0.1-0.8-0.3c-2.8-2.3-5.8-4.3-9.1-5.8
		c-1.3-0.6-2.3-1.5-3.3-2.6c-0.8-0.8-2.5-1.1-3.7-1.7c-5.1-2.4-5.1-2.3-1.3-6.2C409.6,228.2,411.9,226.5,413.5,224"/>
	<path class="st18" d="M453.4,190.9c0.1,0.2,0.3,0.5,0.3,0.5c-1.5,1.2-3.3,2.4-1.5,4.5c1.2,1.3,2.1,2.8,3.8,3.9
		c1.4,0.9,3.1,1.6,4.4,2.8c0.3,0.3,0.4,0.3,0.5-0.1c0.1-0.3-0.1-0.8,0.5-1c0.1,0.3,0.2,0.6,0.2,0.9c0.3,1.6,1.3,2.6,2.9,2.4
		c0.7-0.1,0.9-0.1,1.1,0.4c1.7,3.6,3.3,1.4,5.1,0c2.6-2.1,5.3-4,8-6.1c0.5-0.4,1-0.8,1.6-0.1c-8.7,7.3-17.4,14.7-26.1,22
		c-3.1-0.8-5.3-3.1-7.8-4.8c-2.8-1.9-5.8-3.4-8.9-4.8c-5.5-2.4-5.6-2.9-1.3-6.9c0.4-0.3,0.8-0.7,1-1.2
		C442.2,198.7,447.7,194.7,453.4,190.9"/>
	<path class="st19" d="M404.9,272.1c-0.1-0.1-0.3-0.3-0.5-0.4c-2.2,2.9-3.7,0.4-5.3-0.7c-4-2.9-8.1-5.6-12.6-7.4
		c-1.8-0.7-2.4-3.1-4.8-3.3c-0.8-0.1,1.5-1.6,0-2.5c4-4.9,8.1-9.8,12.6-14.2c1.7,0.5-0.3,2.9,1.8,3.4c0.8,0.2,1.4,1.1,2.3,1.5
		c4.5,2.3,8.7,4.9,12.8,7.8c1.8,1.3,3.7,2.2,5.9,0.9c0,0,0.2,0.1,0.2,0.2c0.1,0.1,0.1,0.3,0,0.5C413.2,262.5,409,267.3,404.9,272.1"
		/>
	<path class="st17" d="M910,518.4c-0.2-0.3,0-1.4-0.8-0.4c-2.8,3.6-2.8,3.7-6.7,1.6c-5.6-3.1-11.1-6.4-16.6-9.5
		c-1.8-1-1.6-2-0.9-3.6c0.5-1,2.2-1.8,0.7-3.2c2.7-5.6,5.4-11.2,8.2-16.8c1.3,2-0.8,3.1-1.2,4.7c-0.2,0.9-1.3,1.8-0.2,2.5
		c0.9,0.6,1.9,2.2,3.2,1.2c1.1-0.8,0.7,0.3,0.8,0.4c1,1.8,2.5,2.7,4.5,3.3c1.9,0.6,3.7,1.6,5,3.2c0.6,0.8,1.2,1.6,2.4,1.8
		c2.8,0.4,4.6,2.6,6.8,4.1C913.5,511.4,912.2,515.1,910,518.4"/>
	<path class="st20" d="M417.3,257.8c-1.1-0.7-1.3,0.5-1.9,0.9c-0.7,0.5-1.1,0.6-1.8,0.1c-5.3-3.9-10.8-7.5-16.8-10.2
		c-1.1-0.5-1.4-2.2-3.1-2.3c-0.8-0.1,0-0.7,0.2-1c0.4-0.6,1.2-1,0.3-1.8c6-6.8,12.5-13.2,19.2-19.4c0.8,1.3-0.6,1.6-1.1,2.1
		c-2.3,2.5-4.8,4.8-7.6,7.6c2.8,1.1,4.7,3.5,7.8,2.8c0.5-0.1,0.4,0.3,0.5,0.6c0.5,2.8,3.2,2.9,5,4c2.6,1.6,5.7,2.6,7.3,5.6
		c-0.2,0.6-0.2,0.6-0.1,0.3c0-0.2,0.1-0.4,0.3-0.5c-0.1-0.1-0.2,0-0.2,0.2c0,0.1,0,0.2,0.1,0c3.2-1.7,4.9-4.6,7.5-6.6
		c0.7-0.6,1.1-2.2,2.6-1.2C429.3,245.2,423.3,251.5,417.3,257.8"/>
	<path class="st9" d="M913.7,434.8c2.5-9.1,5-18.3,7.5-27.4c1.7,0.1,1.2,1.4,1.1,2.3c-0.2,1.6-0.3,3.3-0.9,4.9
		c-0.7,1.7-0.3,2.9,1.3,3.9c4.3,2.7,8.8,5.1,13.1,7.9c1.6,1,2.2,0.4,2.5-1.2c0.3-1.2,0.1-2.7,1.6-3.8c0.4,1.4,0.6,2.4,0.1,3.5
		c-0.4,5.5-1.5,10.9-3.1,16.2c-0.1-0.1-0.2-0.1-0.2-0.2c-0.2-0.3-0.2-0.3-0.2-0.1c-0.4,2.1-1.4,4.1-1.5,6.3
		c-0.1,1.9-1.3,2.4-2.8,1.3c-3.7-2.9-7.8-5.1-11.9-7.5c-0.9-0.6-1.8-1.5-3-1.5C914.2,439.3,913.5,437.4,913.7,434.8"/>
	<path class="st11" d="M939.9,424.9v-2.6c-0.4,0.3-0.6,0.4-0.6,0.5c-0.6,6.4-0.5,6.2-6,2.9c-3.9-2.3-7.7-4.7-11.6-6.8
		c-2.1-1.1-1.8-2-1.4-3.7c0.6-2.5,1.9-5,0.8-7.7c1.5-7.3,2.9-14.5,4.4-21.8c1.7,0.3,1.3,1.6,1.3,2.6c0,1.5-0.4,2.9-0.6,4.3
		c-0.4,2.2-1,4.5,2.4,4.9c2.7,4.3,7.6,5.1,11.9,7.1c1.4-2.5,0.4-5.9,2.2-8.4c0.7,1.9,0.8,3.8,0.3,5.7
		C942.5,409.6,941.8,417.3,939.9,424.9"/>
	<path class="st7" d="M943,401.8v-4.9c-0.4,2.5-1.2,4.9-1.2,7.4c0,1.8-1.3,2.1-2.1,1.2c-2.1-2.5-5.8-1.7-8-3.9
		c-0.5-0.5-1.4-1-2.1-1.7c-0.8-0.8-1.1-1.8-2.7-2c-1.9-0.2-2.1-2.1-1.8-4c0.4-2.8,2-5.5,0.5-8.4c1-6.4,2.1-12.9,3.1-19.3
		c2.2,0.6,1.3,2.3,1.2,3.5c-0.2,1.7,0,3,1.5,4c3.2,2.1,6.7,3.6,9.9,5.7c1.5,0.9,1.5-0.4,1.5-1.3c0.1-2.7,0-5.4,0-8.1
		c0-1.2-0.1-2.5,1.7-3.6c0,6.2,0.4,12-0.2,17.9c0.4,5.4-0.7,10.7-0.7,16.1C943.6,400.9,943.2,401.3,943,401.8"/>
	<path class="st14" d="M312.5,451c-1.7,8.3-3.3,16.6-5,25c-1.7-0.2-1.3-1.6-1.2-2.6c0.3-2.4,0.6-4.7,1.1-7.1
		c0.8-3.7-0.8-6.2-4.6-7.1c-1.3-0.3-2.3-0.6-3-1.8c-0.6-1.1-1.8-1.2-3-1.6c-2.6-0.9-1.9,1.4-2.7,2.3c-0.2,0.2-0.4,0.4-1,0.4
		c-0.3-1-0.4-2.1,0.1-3.1c0.4-4.9,1-9.7,2.5-14.4c0.1,0.1,0.1,0.1,0.2,0.2c0.1,0.2,0.1,0.1,0.2-0.2c0.6-2.6,0.9-5.3,1.5-7.9
		c0.9-4.2,2.3-5.3,5.9-3.1c2.1,1.3,4.5,2.1,6.5,3.5c4.8,3.2,5.5,5.2,3.9,10.6C313.2,446.4,312.3,448.6,312.5,451"/>
	<path class="st15" d="M328,343.6c2.6-6.5,5.7-12.7,9.4-18.7c3.3-0.6,5.6,1.7,8.3,3c1.7,0.8,3.7,1.4,5.2,2.3
		c2.6,1.7,5.4,3.3,7.6,5.6c0.9,1,0.2,1.9-0.4,2.8c-1.1,1.6-2.3,3.2-2.4,5.2c-2.3,4.2-4.5,8.3-6.8,12.5c-0.3,0.1-0.8,0-0.8-0.2
		c0-4.9-3.3-6.3-7.2-7.6c-1.6-0.5-2.8-2-4.2-3c-1.6-1.2-3.5-1.2-5.1-2.2c-1-0.6-1.4,0.4-2.1,0.9C328.7,344.5,328,345,328,343.6"/>
	<path class="st17" d="M437.2,203.4c0.7,1.4-0.7,1.7-1.3,2.2c-0.9,0.7-1.9,1.2-2.7,2.6c7.4,3.7,14.8,7.2,21,12.7
		c-3.6,3.3-7.1,6.6-10.7,9.8c-1.7-0.9-3.1,2.4-4.9,0.4c-0.9-1-2.3-1.4-3.4-2.1c-2.2-1.4-4.1-3.6-6.4-4.2c-2.6-0.8-3.7-3.9-6.8-3.7
		c-1.5,0.1-1.7-1.7-2.4-2.8C425.2,212.9,431,207.9,437.2,203.4"/>
	<path class="st12" d="M312.5,451c-1.4-2-0.4-4.2,0.3-5.8c1.5-3.4,1-6.4-0.5-9.6c-0.4-0.8-0.9-0.7-1.5-0.8c-1-0.2-1.6-0.8-1.8-1.9
		c-0.1,0.7-0.2,1.3-0.5,2.7c-0.1-2.4-1.8-2-2.4-2.7c-1.6-1.7-3.3-2.1-5.4-2.8c-2.4-0.8-2.2,0.6-2.4,1.6c-0.6,3.5-1.1,7.1-2.2,10.5
		c-0.6-0.3-0.3-0.9-0.4-1.4c1.1-8.5,3.1-16.8,5.6-24.9c1.3-1.6,1.3-3.6,1.9-5.4c0.9-3.1,1.1-3.1,3.8-1.6c4,2.2,7.6,5,11.6,7.1
		c1.9,1,2.7,2.3,2.7,4.3C318.3,430.7,315.4,440.8,312.5,451"/>
	<path class="st21" d="M369.8,272.6c0,3,2.5,3.1,4.4,4.4c3.6,2.3,7.3,4.5,11,6.7c2.4,1.4,4.8,2.6,6,5.3c-2.5,3.3-5,6.6-7.5,9.9
		c-1.1-0.8-1.4,0.4-1.9,0.9c-0.6,0.6-1,1.7-1.9,0.1c-0.3-0.6-1-1.2-1.7-0.3c-0.7,1-0.9,0.4-1.2-0.2c-1.2-2.6-3.2-4-6.1-3.6
		c-0.1,0-0.2,0-0.3-0.1c-1.8-3.8-6.5-3.6-9-6.7c-0.9-1.1-1.1-1.7-0.2-2.9c1.3-1.6,2.3-3.4,3.5-5.1c0.4-0.6,0.7-1,0-1.6
		C366.2,277,368.1,274.9,369.8,272.6"/>
	<path class="st9" d="M487.1,168.5c4.7-3.7,10.2-6.1,15.3-9.1c2.9-1.7,6-3.1,9.1-4.6c0.4-0.3,0.8-0.4,1.1,0c0.4,0.5,0,1-0.4,1.3
		c-1.6,1.1-3.3,2-5.1,3c4-0.2,6.8,2.2,9.4,4.4c2.2,1.8,3.7,4.1,6.9,3.6c0.4-0.1,0.7,0.4,0.5,0.9c-6.3,4.1-12.5,8.3-18.7,12.4
		c-1.7,0.6-3.2,0.4-4.2-1.4c-0.2-0.4-0.5-0.7-0.9-0.8c-4.2-1-7.1-4.2-10.6-6.3c-0.4-0.3-0.9-0.5-1.4-0.6
		C485.3,170.7,485.3,170.7,487.1,168.5"/>
	<path class="st19" d="M328,343.6c0.1,0.1,0.1,0.2,0.2,0.2c1.8,0.3,1.4-3,2.6-2.1c2.9,2,6.7,2.4,9,5.2c0.6,0.7,1,1,2.1,1
		c2.9,0.2,4.4,3,6.7,4.4c1.3,0.8-1.3,2.5,0.1,3.9c-2.5,5-5,10-7.5,15c-2.3-4-6.4-5.9-10-8.3c-2.1-1.5-4.9-2-6.6-4.2
		c-0.2-0.2-1.9,0.2-2.4,1.5c-0.4,0.9-0.6,2.6-2.4,2.1c0,0-0.1-0.2-0.1-0.3c0-0.1,0.1-0.2,0.1-0.3C322.1,355.5,324.8,349.4,328,343.6
		"/>
	<path class="st21" d="M355.5,343.8c-0.9-1.7,0.6-2.9,1.2-4.1c1.6-3.3,1.2-4.6-2.5-5.8c-0.2-0.1-0.7,0-0.8-0.1
		c-1.1-3.5-4.8-2.7-7.1-4.5c-2.6-2-5.8-3.4-9-4.3c2.1-4.8,4.6-9.3,7.5-13.7c1.6,0.9,1-1.5,2.2-1.4c1,0.8,1.6,2.7,3.6,1.5
		c0.7-0.4,0.5,0.3,0.6,0.5c1.2,1.9,2.6,3.2,5,2c0.1-0.1,0.4-0.2,0.4-0.2c2.4,3.5,6.5,4.9,9.4,7.8c1.1,1.1,0.2,2-0.3,2.7
		c-1.3,1.9-2.5,3.8-3.5,5.9c-0.3,0.6-0.6,1.1,0.1,1.6C360.1,335.9,357.8,339.8,355.5,343.8"/>
	<path class="st13" d="M306.3,398.6c1.1-4.5,2.5-8.9,4.4-13.1c2-3.2,2.7-6.9,4.2-10.3c1.2-2.8,1.4-3,4-1.3c4.4,3.1,9.4,5.3,13.7,8.4
		c1.9,1.4,2.1,2.8,1,4.8c-0.9,1.6-2,3.2-1.8,5.2c-1.8,4.6-3.7,9.2-5.5,13.8c-0.7,0.2-1.1-0.2-1.1-0.7c0.1-4.5-3.6-5.6-6.7-7.2
		c-2.1-1.1-4.2-2.2-6-3.7c-2-1.7-2.8-0.9-3.5,1.1c-0.4,1.3-0.8,2.6-1.3,3.8c-0.3,0.6-0.6,1.4-1.2,1.1
		C305.7,400.2,305.9,399.3,306.3,398.6"/>
	<path class="st16" d="M913.7,434.8c0.8,2.2,1.1,4.9,4.6,3.5c1.2-0.5,1.1,1.1,1.9,1.5c4.3,2.5,8.8,4.8,12.5,8.2
		c1.2,1.1,1.6-0.1,1.6-1.1c0.1-2.4,1.2-4.5,1.8-6.7c0.1-0.4,0.3-0.9,0.6-0.1c0.1,0.3,0.1,0.6,0.1,0.9c-1.5,7.1-2.9,14.1-5,21
		c-0.1,0.5-0.4,0.9-0.6,1.4c0-0.3,0.1-0.7-0.1-0.9c-0.6-1.1-0.8,0.1-0.8,0.3c-0.4,1.9-1.3,1.4-2.3,0.6c-3.1-2.4-7-3.1-10.1-5.4
		c-2.4-1.7-4.9-3.4-7.5-4.8c-1.3-0.7-1-1.8-0.7-3c0.2-1.2,1.7-2.4,0.3-3.7C910.8,442.6,912.3,438.7,913.7,434.8"/>
	<path class="st20" d="M331.8,392.4c-1.3-1.5,0-2.7,0.5-3.9c1.7-3.6,1.2-6.2-2.3-7.3c-4.6-1.4-7.9-4.5-11.8-6.8
		c-1.8-1.1-2.3-0.7-2.9,1.1c-1.2,3.6-2.7,7.1-4.1,10.7c0,0.1-0.1,0.1-0.2,0.2c-0.1-0.2-0.3-0.5-0.4-0.7c2.6-8.1,5.5-16.1,9.3-23.8
		c0.7,0.7,0.8-0.1,1-0.5c2-3.5,3-3.8,6.1-1.9c4,2.5,7.9,5.1,12,7.5c1.8,1.1,1.6,2.9,2.2,4.4L331.8,392.4z"/>
	<path class="st11" d="M524,167.9c-3.7,0.3-6.4-1-8-4.5c-0.2-0.5-0.8-1.1-1.5-0.6c-0.9,0.6-1.4,0.3-1.6-0.6c-0.3-1.5-0.4-2-0.9-0.1
		c-0.1,0.3-0.4,0.2-0.4-0.1c-0.3-3.1-2.6-2.2-4.5-2.2c-0.5,0-1-0.7-1.4-0.9c2.3-1.3,4.4-2.5,6.5-3.8c0,0-0.1-0.2-0.1-0.2
		c-0.2-0.1-0.4-0.1-0.6-0.1c6.6-4,13.6-6.9,20.6-10c1.4,0.4,1.6,0.6,0.8,1.3c-0.9,0.9-2.2,1.1-3.6,1.8c2.1,0.2,4.2-0.1,4.7,2.6
		c0,0.1,0.7-0.4,0.3-0.3c-0.2,0.1-0.2,0-0.1-0.3c0.3-1.2,0.8-2.7,2.2-2.5c1.3,0.2,1.1,1.7,1.1,2.9c0,3.8,2.7,5.3,5.9,3.5
		c2.3-1.2,4.7-2.1,7-3.4c0.8-0.4,1.9-1.1,2.3,0.5C543.1,156.7,533.5,162.3,524,167.9"/>
	<path class="st4" d="M941.2,320.7c1,7.7,2.3,15.3,2.5,23.1c-0.3,4,0.2,7.9,0.1,11.9c0,0.8,0.5,1.6-0.3,2.3c-1,0.7-1.7-0.1-2.5-0.5
		c-2.4-1.1-4.7-2.5-6.6-4.5c-0.3-0.3-0.6-0.8-1-0.8c-2.8-0.1-2.7-1.9-2.5-3.9c0-0.3-0.1-0.6-0.3-0.8c0.4-8.7,1.5-17.4,1.2-26.2
		c0.9-3-0.2-6.3,0.7-9.6c1.4,0.9,1.4,2.1,1.4,3.1c-0.2,2.5,1.4,3.4,3.2,4.3c0.8,0.4,1.3,0.5,1.7-0.4c0.3-0.6,0.3-1.6,1.3-1.4
		c1.1,0.3,0.6,1.4,0.7,2.1C940.9,320,940.8,320.4,941.2,320.7"/>
	<path class="st10" d="M930.6,347.5c0.7,0.5,0.5,1.3,0.6,2c0.1,1-0.3,2.5,1.8,1.7c0.9-0.3,1.5,0.8,2,1.5c1.9,2.4,5,3.2,7.4,4.8
		c0.9,0.6,0.9-0.6,0.8-1.5c-0.3-3.9-0.4-7.7-0.5-11.6c0-0.5,0.4-0.6,0.9-0.7c1.6,13,1.2,26.1,1.2,39.2c0,0.5-0.4,0.9-0.6,1.4v-16.7
		c-0.2,0-0.3,0-0.5,0v13.8c-3.1-0.4-4.9-2.8-7.4-3.8c-2-0.8-4.1-2.2-6-3.5c-1.8-1.2-1.8-2.3-1.4-3.8c0.3-1.4,0.9-2.8-0.2-4.1
		C929.3,360,929.9,353.8,930.6,347.5"/>
	<path class="st16" d="M487.1,168.5c-0.3,1.2-0.9,2.6,1.4,2.1c0.6-0.1,1.3,0.5,1.9,0.8c3.4,1.6,5.4,5.6,9.7,5.6
		c0.2,0,0.4,0.2,0.5,0.3c1.2,1.5,2.5,2.9,4.6,3c-4.1,3.4-8.6,6.5-13,9.4c-5.1,0.8-8.3-3-12-5.2c-2.5-1.5-1.5,0.8-2.1,1.6
		c-0.2-3.2-2.7-4-4.8-5.4c-0.6-0.4-1.9-0.2-1.8-1.2c0-0.6,1.1-1.1,1.7-1.6c0.4-0.4,1.6-0.3,0.9-1.4
		C478.1,173.5,482.4,170.7,487.1,168.5"/>
	<path class="st7" d="M552.6,151.1c-1.4-1.1-2.3,0.3-3.3,0.8c-2.4,1.1-4.7,2.6-7.1,3.8c-2.4,1.2-6.1-2.1-5.7-5c0.1-1,0.6-2-0.4-2.8
		c-1.4,1-1.7,2.4-1.7,3.9c-1.4-1-1.3-4.5-4.2-2.1c-0.5-0.8-1.8-0.6-2.1-1.2c-0.4-0.8,0.8-1,1.4-1.3c0.9-0.5,2-0.7,2.8-1.2
		c0.9-0.5,0.5-0.9-0.3-1c7.2-3.7,14.7-6.6,22.2-9.5c1.7-0.7,3.3-1.7,5.3-1.8c1.6,0.3,0.4,1,0.1,1.2c-1.6,1.3-3.6,1.9-5.6,2.5
		c2.9,2,6.1,3.4,9,5.2c1,0.6,1.7,0.2,2.6-0.2c1.4-0.7,2.7-1.5,4.2-2c0.9-0.3,2-0.9,2.3,0.8C565.7,144.8,559.1,147.7,552.6,151.1"/>
	<path class="st17" d="M306.3,398.6c0,0.3,0,0.7,0.1,0.9c0.4,0.8,0.5,0.2,0.6-0.1c0.6-1.8,1.3-3.5,1.8-5.3c0.6-2.3,2.1-2.1,3.3-1.1
		c2.4,1.9,4.9,3.4,7.9,4.4c2,0.7,3.5,3.1,5.7,4.2c0.7,0.3,0.6,1.2,0.3,2c-0.4,0.9-0.6,1.8,0.3,2.5c-1.7,4.8-3.4,9.5-5,14.3
		c-1.1-3.2-4.2-4.1-6.6-5.8c-3.1-2.2-6.7-3.6-9.8-6.4c-1.6,2.9-1.8,6.2-3.1,9.2c-0.6-0.4-0.3-0.9-0.4-1.4
		C302.5,410.1,304.2,404.3,306.3,398.6"/>
	<path class="st11" d="M290.7,529c-1.4-12.9-1.4-25.9-1.2-38.9c0-1.2-0.4-2.5,0.6-3.6c0.7,0.6,0.9,1.5,0.8,2.3
		c-0.6,4.3-0.4,8.6-0.5,12.9c0-2.5,0.1-5,0-7.5c-0.1-2.3,0.9-2.5,2.6-1.7c2,1,4,1.9,5.6,3.4c1.1,1.1,2,2.3,3.7,2.4
		c1,0.1,1.2,1.2,1.3,2.2c0.6,3.6,0.1,7.2,0,10.8c0,0.9-0.4,1.8,0.2,2.7c0,3.1,0,6.2,0,9.4c-0.8,3,0.1,6.1-0.7,9.9
		c-1.9-2.6-2.5-5.3-2.3-7.7c0.2-2-0.5-2.7-1.8-3.7c-1.5-1.1-3.1-1.7-4.6-2.5c-2.5-1.2-3.8-3-3.4-5.2c1.2,5.9,1.9,12.5,0.9,19.1
		C290.4,532.1,291.6,530.3,290.7,529"/>
	<path class="st7" d="M290.7,529c1.2,1,0.1,2.6,1.2,4.1c-0.5-7.3-0.9-14.1-1.2-18.4c-0.8,4.3,5.6,4.1,8.9,6.8
		c1.5,1.2,3.7,1.4,1.8,4.4c-0.6,0.9,0.8,4.1,1.3,6.8c0.9-3.5-0.5-6.5,1-9.3c0.2,8.1,0.4,16.2,0.7,24.3c0.5,2.1,0.4,4.2,0.1,6.3
		c-0.7,0-1.1-0.2-1.2-0.6c-0.5-5.3-5.4-6-8.6-8.7c-0.5,3.1,1.7,6-0.3,8.7c-1.9-3.1-1.6-6.7-2.1-10
		C291.6,538.6,290.6,533.8,290.7,529"/>
	<path class="st9" d="M303.8,514c-1.3-1.7-0.5-3.6-0.6-5.4c-0.2-2.8-0.2-5.7-0.3-8.5c0-0.5,0-1-0.4-1c-4.4-0.5-6.2-5.4-10.5-6.1
		c-0.4-0.1-0.7-0.5-1.3-0.1v9.7c-0.2,0-0.4,0-0.6,0v-16.1c0.3-3.1-0.6-6.3,0.6-9.3c0.8,1.3,0,2.6,0.3,3.5c0-2.2,0.3-4.8,0.4-7.4
		c0.1-2.4,1.4-3,3.6-1.9c0.8,0.4,1.5,0.7,2.1,1.4c2,2.3,4.3,4.1,7.1,5.3c2.6,1.1,2.2,3.5,1.9,5.6c-0.6,3.9-1.3,7.7-1,11.6
		C305,501.6,304.4,507.8,303.8,514"/>
	<path class="st22" d="M305.1,495.3c-1.7-3.7-0.2-7.3,0.3-10.9c0.6-4.8,0.3-5.7-4.5-6.9c-0.9-0.2-1.1-0.7-1.5-1.3
		c-0.7-0.9-1.3-1.9-2.2-2.6c-1.3-1-2.7-2.7-4.3-2c-1.4,0.6-0.8,2.6-0.9,4c-0.1,2.1-0.9,4.2-1.3,6.4v-4.9c0.2-7.3,0.8-14.6,2.5-21.8
		v2.4l0.4,0.1c0.4-1.3,0.7-2.5,1.2-4.3c0.9,2.5,3.7,0.6,4.6,2.4c1.6,3.2,5.5,2.2,7.6,4.6c1.3,1.5,1.9,2.7,1.5,4.6
		c-0.6,2.7-1,5.4-1.4,8.2c-0.2,0.9-0.4,1.9,0.5,2.6C306.7,482.4,305.9,488.9,305.1,495.3"/>
	<path class="st4" d="M309.4,584.5c1.6,6.8,3.2,13.5,5,20.3c0.9,3.7,2.1,7.3,3.1,11c0.4,0.7,0.6,1.5-0.2,1.9c-0.6,0.3-1.2-0.4-1.3-1
		c-0.7-2.2-2.5-3.4-4.1-5c0.5,3.5,0.5,3.5-1.3,2.9c-5.1-13.5-9.4-27.2-12.8-41.2c-0.1-0.6-0.2-1.2-0.3-1.8c0.4-1.2,1-1.7,2.3-1
		c1.6,0.9,3.1,1.9,5.1,2.3c1.3,0.2,2.1,1.7,2.1,2.8c0.2,3.1,2,5.9,2.1,9c0,0.1-0.1,0.3,0,0.3C309.5,585,309.1,584.4,309.4,584.5"/>
	<path class="st10" d="M572,141.1c-2.8-1.2-4.4,1.4-6.5,2.2c-1.5,0.5-2.1,1.1-3.5-0.5c-1.4-1.7-4.1-1.9-6-3.3
		c-0.9-0.7-2-1.9-3.9-1.8c2.5-1.8,5.8-1.4,7.4-4c3.6-2.1,7.7-3.2,11.7-4.5c3.8-1.3,7.4-2.9,11.4-3.6c0.8-0.4,1.8-0.7,2,0.4
		c0.3,1.3-0.9,1-1.6,1.2c-1.2,0.3-2.4,0.6-3.4,1.4c2.9,3.4,5.5,4.1,9.3,2.6c1.4-0.6,2.8-1.3,4.2-1.8c1-0.4,2.5-1.4,3.2,0.7
		C588.2,133.6,580.1,137.4,572,141.1"/>
	<path class="st10" d="M309.4,584.5c0,0.3,0.1,0.8-0.1,0.9c-1,0.8-0.5-0.3-0.5-0.5c-1.1-3.5-2-6.9-3.2-10.4
		c-0.4-1.1-7.1-3.6-8.1-3.1c-1.3-6-3.3-11.8-3.1-18.1c0.3-3.4-0.7-6.7-1-10.2c3.1,1.9,6.1,3.8,9.2,5.6c0.9,0.5,0.8,1.1,0.8,1.8
		c0.1,1-0.3,2,0.9,3.5c0-2.5,0-4.4,0-6.3c1.4,2.4,0.6,5,0.8,7.5C306.3,565,308.2,574.7,309.4,584.5"/>
	<path class="st4" d="M596.3,129.9c-1.2-1.2-2.2-0.2-3.3,0.2c-2.2,0.9-4.3,2-6.5,2.9c-0.8,0.3-3.4-1.3-4.2-1.5
		c-2-0.4-2.6-2.4-4.7-3.1c2.4-1,4.3-2.2,6.6-2.2c-0.4-0.9-1.1-0.5-1.6-0.7c9.1-3.4,18.5-5.6,27.9-8.1c0.9-0.2,1.8-0.4,2.7-0.7
		c1-0.6,2.3-0.4,2.9,0.2c2.2,2.4,4.6,1.4,7,0.6c0.7-0.2,2.5-1.5,1.9,1C615.4,122.4,605.9,126.1,596.3,129.9"/>
	<path class="st8" d="M310.7,614.4c2,0.7,0.5-0.7,0.7-1.2c0.4-0.8-1.5-1.4,0-2.3c1.5-0.9,1.2,0.7,1.8,1c1.7,1,2.9,2.4,3.4,4.3
		c0.1,0.2,0.2,1,0.7,0.5c0.2-0.2,0.1-0.8,0.2-1.2c3.3,9.3,6.4,18.8,10.2,27.9c4.6,10.8,9,21.6,14.9,31.8c0.1,0.2,0.2,0.5,0.4,1.6
		c-3.7-4.4-6-8.9-8.6-13.1c-9.4-15.5-17.1-31.9-23.7-48.8C310.7,614.9,310.7,614.6,310.7,614.4"/>
	<path class="st8" d="M941.2,320.7c-1-0.7-0.3-2-1.2-3.2c-0.2,1.3,0,2.4-0.9,3.1c-1.6,1.2-1.8-0.4-2.6-1.1c-2.9-2.3-2.9-2.2-3.7-7.1
		c-0.9,3,0.6,6.1-0.9,8.9c0.2-16.2-0.3-32.4-2.3-48.6c2.3,5.2,3.9,10.7,5.3,16.1c2.5,9.5,4.4,19.1,6.2,28.7
		C941.2,318.6,941.1,319.7,941.2,320.7"/>
	<path class="st3" d="M715.8,408.5c1.7-0.9,3.6-1.5,5.8-1.9c-0.4,4-0.8,7.8-1.2,11.6c0.2-2.7-1-2.8-3.1-2.1
		c-7.9,2.7-15.8,5.3-23.7,8c-2.1,0.7-2.8,0.3-2.4-2c0.3-1.8,0.4-3.7,0.5-5.5c0.3-0.4,0.7-0.6,1.3-0.5c5-0.7,9.5-2.8,14.2-4.4
		C710.1,410.8,713.3,410.5,715.8,408.5"/>
	<path class="st8" d="M625,118.6c-0.7-2.1-2.3-0.2-2.5-0.1c-2.4,1-4.5,1.5-6.4-0.9c-0.6-0.8-1.8-1-2.9-0.9c5.6-2.2,11.5-3,17.3-4.2
		c7.3-1.6,14.8-2.7,22.2-4c4.6-0.8,9.3-1.5,14.1-2.3c-1.2,1.6-3,1.2-4.4,1.5c-11.4,2.8-22.7,6.2-33.8,10.1
		C627.4,118.2,626.2,118.4,625,118.6"/>
	<path class="st23" d="M711.1,540.5c0,0.7-0.1,1.5-0.1,2.2c-0.8,1.9,0.1,4-0.5,5.9c0.3,0.7,0.2,1.5-0.1,2.2c-0.8,1.9,0.1,4-0.5,5.9
		c0,0.7-0.1,1.5-0.1,2.2c-0.7,1.7,0.1,3.6-0.5,5.3c0.2,0.7,0.3,1.5-0.1,2.2c-0.8,2.1,0.1,4.4-0.6,6.5c0,0.7-0.1,1.5-0.1,2.2
		c-0.8,1.9,0.1,4-0.5,5.9c0.3,0.7,0.2,1.5-0.1,2.2c-0.8,1.9,0.1,4-0.5,5.9c0,0.7,0,1.5-0.1,2.2c-0.8,1.9,0.1,4-0.5,5.9
		c0.2,0.5,0.2,1.1-0.1,1.6c-1.4,1.4-0.1,3.4-1.1,5.3c-0.8-5.1,0.4-9.8,0.6-14.5c0.2-5.9,1.4-11.7,1.6-17.5
		c0.5-10.6,1.7-21.2,2.4-31.8c0.5-7,1-14,1.4-21c0.6-9.6,1.6-19.1,2.4-28.7c0.2-2.8,0.3-5.6,0.5-8.3c0.9-9.5,1.2-19,2.1-28.4
		c1-10.9,1.2-21.8,3.2-32.6v5.2c0,0.8-0.1,1.5-0.1,2.3c-0.8,1.9,0.1,4-0.5,5.9c0,0.7-0.1,1.5-0.1,2.2c-0.7,1.9,0.1,4-0.5,5.9
		c0,6.2-0.7,12.3-1.3,18.4c-0.8,2.1,0.1,4.4-0.5,6.5c0,0.7-0.1,1.5-0.1,2.2c-0.6,1.7,0.1,3.6-0.5,5.3c0.3,0.7,0.2,1.5-0.1,2.2
		c-0.8,2.1,0.1,4.3-0.5,6.5c0,0.5-0.1,1.1-0.1,1.7c-0.7,1.9,0.1,4-0.5,5.9c0,0.7-0.1,1.5-0.1,2.2c-0.8,1.9,0.1,4-0.5,5.9
		c0,0.9-0.1,1.9-0.1,2.8c-0.7,1.7,0.1,3.6-0.5,5.3c0.3,1,0.1,1.9-0.1,2.8c-0.7,1.9,0.1,4-0.5,5.9c0,0.7-0.1,1.5-0.1,2.2
		c-0.7,1.9,0.1,4-0.5,5.9c0,0.7-0.1,1.5-0.1,2.2c-0.7,1.9,0.1,4-0.5,5.9c0,0.5-0.1,1.1-0.1,1.6C710.9,536.1,711.8,538.4,711.1,540.5
		"/>
	<path class="st24" d="M573.3,495.6c-0.7,9.5-1.3,19-2,28.5c-1,12.9-2.1,25.8-3.1,38.6c-0.1,0.1-0.2,0.2-0.3,0.2
		c-0.1-0.1-0.2-0.2-0.3-0.2c0.2-11.4,1-22.7,2.4-34c0.5-3.8,0.6-7.6,0.7-11.5c0.4-9.7,1.4-19.3,2.4-29c0.4-3.5,0.1-7,0.4-10.6
		c0.7-6.4,1-12.8,1.5-19.1c0.4-0.2,0.7-0.1,0.9,0.3c0,1.7,0.3,3.3-0.2,4.9c0,0.5-0.1,1.1-0.1,1.6c-0.7,1.9,0.1,3.9-0.5,5.8
		c0,0.8-0.1,1.5-0.1,2.3c-0.7,1.9,0.1,3.9-0.5,5.8c0,0.5-0.1,1.1-0.1,1.6c-0.7,2.1,0.1,4.4-0.5,6.5c0,0.8-0.1,1.5-0.1,2.3
		C573.1,491.6,573.9,493.6,573.3,495.6"/>
	<path class="st25" d="M348.2,486.8c-0.3,2-0.5,4-0.8,6.1c-0.6,1,0,2.3-0.5,3.3c-1.3,13.5-2.5,27-2.3,40.6
		c0.1,8.8,0.7,17.6,1.1,26.3c0.4,1.2,0.2,2.4,0.2,3.5c-0.1,0.1-0.2,0.3-0.3,0.4c-1.5-4.5-1.4-9.3-1.8-14c-0.4-5.2-0.6-10.6-0.4-15.8
		c0.3-7.8-0.2-15.7,0.8-23.5c0.9-7,1.3-14.2,2-21.2c0.3-2.6,0.9-5.2,1.5-8.8C348,485.4,348.1,486.1,348.2,486.8"/>
	<path class="st24" d="M575.7,458.5h-0.6c0.9-5.5,0.7-11.1,1.2-16.7c0.9-9.5,1.8-19.1,2.4-28.7c0.4-5.8,0.9-11.5,1.3-17.3
		c0.5-6.8,2.2-13.2,5.7-19.1c0.3-0.5,0.5-1.3,1.3-0.4c-4.7,7.8-5.7,16.5-6.3,25.3c-0.7,10.4-1.7,20.9-2.5,31.3
		c-0.7,1.9,0.1,3.9-0.5,5.8c0,0.8-0.1,1.5-0.1,2.3c-0.7,1.9,0.1,3.9-0.5,5.9l-0.1,1.6c-0.8,2.1,0.1,4.4-0.5,6.5
		c0,0.8-0.1,1.5-0.1,2.3C575.9,457.6,576.2,458.2,575.7,458.5"/>
	<path class="st26" d="M566.4,585.3c-0.8,11.1-1.5,22.2-2.3,33.2c-0.2,3.2-0.6,6.4-0.9,9.6c-0.5,0.6-0.1,1.4-0.5,2
		c-0.3,0.2-0.5,0.1-0.7-0.1c0.8-11.1,1.7-22.2,2.5-33.3c0.6-8.8,1.1-17.7,2-26.5c0.2-2.5,0-5.1,1.2-7.5l0,0c0.5,2,0.4,3.9,0.1,5.9
		c0.3,1,0.1,1.9-0.1,2.9c-0.7,1.7,0.1,3.5-0.5,5.2c0.3,1,0.1,1.9-0.1,2.9C566.2,581.4,567.1,583.4,566.4,585.3"/>
	<path class="st27" d="M686.2,387.1c-0.2,9.9-1.1,19.8-2,29.7c-0.7,0.4-0.5,1.3-1,1.9c-0.2-4,0.1-8,0.6-11.8
		c0.5-3.8,0.4-7.6,0.9-11.4c0.9-7.7,0.7-15.5,1.5-23.2c0.5-4.3-0.2-8.6,1.1-12.8c0.1-0.2,0.2-0.3,0.4-0.1c0.1,0.1,0.2,0.1,0.3,0.2
		c-0.1,0.6-0.1,1.2-0.2,1.8c-0.7,2.3,0.1,4.8-0.5,7.1c0,1-0.1,1.9-0.1,2.9c-0.8,2.3,0.1,4.8-0.5,7.1c0,0.7-0.1,1.5-0.1,2.2
		C686,382.7,686.8,384.9,686.2,387.1"/>
	<path class="st28" d="M859.4,181l-1.2-0.1c-1.5-0.6-3.1,0.1-4.6-0.5c-6.1,0-12.1,0-18.2,0c-1.5,0.6-3.1-0.1-4.6,0.5
		c-0.5,0.1-1.1,0.1-1.6,0.2c-1.1,0.5-2.3-0.1-3.4,0.5l-14.3,3.1c-0.2-0.1-0.3-0.3-0.2-0.4c0.1-0.1,0.1-0.2,0.2-0.2
		c4.5-2.5,9.7-2.8,14.6-3.6c7.4-1.2,15-1.6,22.5-1.4c3.4,0.1,6.8,0.9,10.2,0.7C859.5,179.7,860.3,180,859.4,181"/>
	<path class="st29" d="M729.8,301c-0.7,7.6-0.9,15.3-2.3,22.9c-0.5-0.2-1.7,0-1.4-0.5c2.5-3.8,1.1-8.2,1.5-12.2
		c1.1-9.5,2.2-19,3.9-28.4c0.2-0.9,0-1.9,1.4-2c-0.9,2.6-1.1,5.4-1.4,8.1c-0.7,1,0,2.3-0.5,3.3l0.1,0.2l-0.1,0.2
		c-0.7,1.1,0,2.3-0.6,3.4c0,0.5-0.1,1.1-0.1,1.6C729.7,298.7,730.3,300,729.8,301"/>
	<path class="st30" d="M739.8,253c-2.5,7.4-3.9,15.1-5.7,22.6c-0.2,0.9-0.5,1.8-0.7,2.7c-1-1.1-0.7-2.4-0.5-3.5
		c1.8-7.1,3.6-14.1,5.5-21.1C738.6,253.4,738.3,251.1,739.8,253"/>
	<path class="st31" d="M655,154.7c-0.4,0.6-1,0.8-1.6,0.7c-6.8-1-13.5-0.9-20.2,0c-0.7,0.1-1.5,0-1.9-0.7
		C639.1,153.1,647,153,655,154.7"/>
	<path class="st32" d="M346.8,572c1.3,6.6,2.5,13.2,3.8,19.8c0,0.4-0.1,0.8-0.1,1.2c-2.6-8.5-4.9-17.1-4.9-26h0
		c0.2-0.3,0.4-0.3,0.6,0c0,0.3,0.1,0.7,0.1,1C346.9,569.3,346.1,570.8,346.8,572"/>
	<path class="st33" d="M642.4,295.2c0.9-1.1,2.1-0.8,3.1-0.7c5.2,0.8,10.4,0.9,15.6,0c0.9-0.1,1.9-0.3,2.5,0.6
		C656.6,296.8,649.5,296.5,642.4,295.2"/>
	<path class="st31" d="M628,155.4c0.7,0.2,1.4-0.2,2.1,0.4c-6.8,1.5-13.3,3.5-19.1,7.2c-0.6,0.4-1.1,0.6-1.5-0.1
		C615,159,621.3,156.7,628,155.4"/>
	<path class="st34" d="M571.3,238.4c1.2,1.1,0.7,2.5,0.6,3.8c-0.3,4.8,0.8,9.6-0.6,14.3C570.3,250.4,570.4,244.4,571.3,238.4"/>
	<path class="st35" d="M861.3,186.6c-0.7,1.1-0.6,2.4-0.6,3.6c-0.2,4.5-0.4,9.1-0.6,13.6c-0.1,1.8-0.7,0.5-1.2,0.3
		c0.4-5.8,0.7-11.7,1.1-17.5C860.4,186.6,860.9,186.6,861.3,186.6"/>
	<path class="st36" d="M852,285.1l-16.8,5c-0.2-0.1-0.3-0.3-0.2-0.4c0.1-0.1,0.1-0.2,0.2-0.2c4.6-2.3,9.8-3.1,14.6-4.9
		C850.4,284.3,851.4,284.3,852,285.1"/>
	<path class="st37" d="M639.9,177.9c-5.2,0.9-10.4,0.9-15.5,0C629.6,177,634.7,177.1,639.9,177.9"/>
	<path class="st38" d="M363.9,422.4c-0.7,5.2-3,9.9-4.5,14.9c-0.2-0.2-0.6-0.5-0.5-0.7C360,431.7,361,426.7,363.9,422.4"/>
	<path class="st39" d="M620.6,357.5c-4,1.6-8.1,2.7-12.2,3.9c-0.5,0.2-1,0.3-1.5-0.1c3.9-2.4,8.4-2.9,12.7-4.3
		C619.8,356.9,620.3,357.3,620.6,357.5"/>
	<path class="st40" d="M368.7,411.3c-1.6,3.8-2.3,7.9-4.9,11.2c0.4-4.3,2.7-7.9,4.3-11.8C368.4,409.8,368.5,411,368.7,411.3"/>
	<path class="st37" d="M636.2,319.5c4-1,7.9-1,11.9,0C644.1,320.2,640.2,320.2,636.2,319.5"/>
	<path class="st41" d="M562.1,642.2c0,0.9-0.1,1.9-0.1,2.8c-1.3,1.2,0,3-1.2,4.6c-0.3-5.3,0.1-10.3,1.1-15.2
		c0.5,0.3,0.2,0.9,0.7,1.2c0,0.4,0,0.8-0.1,1.3C561.9,638.6,562.7,640.5,562.1,642.2"/>
	<path class="st42" d="M488.4,290.1c-3.1,1.3-6.1,2.5-9.2,3.8c-0.3-0.1-0.5-0.2-0.8-0.3C479.2,292.3,486.6,289.7,488.4,290.1"/>
	<path class="st38" d="M747.3,234.8l-4.4,9.8c-1-3.3,1.6-5.6,2.7-8.3C745.7,235.7,745.7,234.1,747.3,234.8"/>
	<path class="st43" d="M606.9,361.2c0.5,0,1,0.1,1.5,0.1c-2.3,1.5-5.3,1.5-7.5,3.1c-0.9-0.6-0.3-1,0.2-1.3
		C603,362.2,604.8,361.3,606.9,361.2"/>
	<path class="st44" d="M811.4,184.1c0,0.2,0,0.4,0,0.6c-2.2,0.8-4.2,1.9-6.6,2c-0.3,0.2-0.6,0.1-0.9-0.1
		C806.2,185,808.7,184.3,811.4,184.1"/>
	<path class="st45" d="M803.9,186.6c0.3,0,0.6,0.1,0.9,0.1c-2,1.8-4.9,1.6-7,3.1c-0.3-0.2-1.5-0.1-0.5-0.7
		C799.4,187.8,801.5,186.7,803.9,186.6"/>
	<path class="st46" d="M354.3,604.5c0.4,2.6,2.5,4.6,2.1,7.4C355.1,609.6,353.1,607.5,354.3,604.5"/>
	<path class="st47" d="M823.3,293.8c-0.7-0.9,0.4-1.2,0.7-1.8c1.7-0.2,3.3-0.4,5-0.6c0.2,0.1,0.2,0.3,0.2,0.4c0,0.1-0.1,0.2-0.2,0.2
		C827.2,293.1,825.1,293.1,823.3,293.8"/>
	<path class="st36" d="M828.9,292c0-0.2,0-0.4,0-0.6c1.9-1.1,4-1.9,6.2-1.9c0,0.2,0,0.4,0,0.6C833.1,290.8,831,291.4,828.9,292"/>
	<path class="st48" d="M669.9,342.5c-1.5,0.7-3.1,1.2-4.8,1.3c-0.3-0.1-0.9-0.5-0.8-0.5C666.1,343,667.8,341,669.9,342.5"/>
	<path class="st36" d="M356.3,611.8c1.3,1.4,2.1,3.1,2.5,5c-0.2,0.3-0.1,1.4-0.7,0.5C357,615.7,356.1,613.9,356.3,611.8"/>
	<path class="st49" d="M722.3,325.1c-1.3,0.8-2.7,1-4.2,1.3c-0.3-0.1-1-0.4-0.9-0.5C718.8,325.2,720.3,323.6,722.3,325.1"/>
	<path class="st50" d="M509,574.5c-1.3,1.2-3.3,1-4.7,2c-0.3-0.2-0.6-0.3-1-0.5C505.1,575,506.7,573.5,509,574.5"/>
	<path class="st51" d="M482.8,581.4c-1.7,0.5-3.3,0.5-5,0C479.5,580.4,481.1,580.4,482.8,581.4"/>
	<path class="st51" d="M543.1,280h-7.3c0-0.1,0-0.2,0-0.3h7.3C543.1,279.8,543.1,279.9,543.1,280"/>
	<path class="st52" d="M765,212.3c-1.5,1.5-3.1,3.1-4.6,4.6C760.9,214.3,762.4,212.8,765,212.3"/>
	<path class="st53" d="M378.5,650.6c1,0.9,2.1,1.7,2.7,3C379.4,653.5,378.3,652.6,378.5,650.6"/>
	<path class="st51" d="M562.6,635.6c-0.5-0.3-0.6-0.7-0.7-1.2c0-1.5,0-2.9,0-4.4c0.2,0,0.4,0,0.6,0c0.6,1.5,0.4,3,0.1,4.5
		C562.7,634.9,562.6,635.3,562.6,635.6"/>
	<path class="st54" d="M431,324.9c-0.7,0.7-1.5,1.4-2.2,2.1C428.5,325.4,429.2,324.8,431,324.9"/>
	<path class="st55" d="M369.3,637.5c0.5,0.7,0.9,1.5,1.4,2.2C369.2,639.9,368.8,639.3,369.3,637.5"/>
	<path class="st56" d="M499,578.3c-0.8,0.2-1.6,0.5-2.3,0.7c-0.2-0.2-1-0.4-0.7-0.5C496.9,578.1,497.9,577,499,578.3"/>
	<path class="st3" d="M856.9,292.1c-0.6-1.6-0.4-3.3-0.3-5C857.4,288.7,856.9,290.4,856.9,292.1"/>
	<path class="st55" d="M595.7,367.4c-0.8,0.2-0.7,1.4-1.7,1.4C593.7,367.4,594.1,367,595.7,367.4"/>
	<path class="st51" d="M524.6,281.4c-0.4,0-0.7,0.1-1.1,0.1c-0.9-0.1-1.8-0.2-2.6-0.3C522.1,280.9,523.4,280.3,524.6,281.4"/>
	<path class="st51" d="M555.6,281.5l-1.1-0.1c1.2-1.1,2.5-0.5,3.7-0.2L555.6,281.5z"/>
	<path class="st57" d="M406.1,350.1c-0.5,0.6-0.9,1.2-1.4,1.8C404.2,350.5,404.6,349.8,406.1,350.1"/>
	<path class="st52" d="M434.1,322.4c-0.6,0.5-1.2,1-1.8,1.4C432.3,322.6,432.6,321.7,434.1,322.4"/>
	<path class="st52" d="M390,662.4c0.6,0.5,1.1,1,1.7,1.5C390.2,664.5,389.8,663.7,390,662.4"/>
	<path class="st57" d="M403,353.8c-0.5,0.6-0.9,1.2-1.4,1.8C401.1,354.2,401.5,353.6,403,353.8"/>
	<path class="st57" d="M756,221.6c-0.5,0.6-0.9,1.2-1.4,1.8C754.3,221.9,754.5,221.5,756,221.6"/>
	<path class="st58" d="M691.1,297.7c-0.2-0.2-0.5-0.4-0.7-0.7c0.5-0.5,1-1.3,1.6-0.7C692.4,296.7,691.7,297.3,691.1,297.7"/>
	<path class="st51" d="M420.7,334.5c-0.7,0.7-1.4,1.4-2.1,2.1C418.5,335.1,419.2,334.4,420.7,334.5"/>
	<path class="st51" d="M687.8,359.3c-0.1,0.1-0.3,0.1-0.4,0.1v-2.6C688.3,357.7,687.7,358.5,687.8,359.3"/>
	<path class="st55" d="M751.7,227.3c-0.2,0.4-0.5,0.7-0.7,1.1c-0.5-0.3-0.6-0.8-0.2-1.2C751.1,226.8,751.4,226.9,751.7,227.3"/>
	<path class="st51" d="M418.2,337c-0.7,0.7-1.4,1.4-2.1,2.1C416.1,337.6,416.8,336.9,418.2,337"/>
	<path class="st59" d="M451,444.8c1.3,1.2,0.1,2.4-0.3,3.4c-4.2,12-6.8,24.5-8.4,37c-0.8,6-1.9,12-2.1,18.1v-5.8
		c0.6-14.4,3.3-28.5,7.1-42.3C448.4,451.8,449.8,448.3,451,444.8"/>
	<path class="st60" d="M536.4,608.8c1.4,2.2,0.7,4.6,0.6,6.9c-0.4,7.2-1.2,14.3-1.8,21.5c-0.1,0.9,0.2,1.9-1.2,2.2
		c0-0.4,0.1-0.9,0.1-1.3c0.3-1.1-0.1-2.3,0.4-3.3C534.7,626,535.4,617.4,536.4,608.8"/>
	<path class="st61" d="M543.3,379.8c-0.6,1-1.7,0.8-2.5,0.7c-6.3-0.9-12.6-0.9-19,0c-1.1,0.1-2.5,0.5-3.5-0.6
		C526.7,378.3,535,377.9,543.3,379.8"/>
	<path class="st62" d="M538.9,575.1c1.4,2.4,0.8,5.1,0.6,7.6c-0.4,4.7-1,9.4-1.1,14.2c0,1-0.4,1-1.2,0.7
		C537.7,590.1,538.3,582.6,538.9,575.1"/>
	<path class="st63" d="M555.7,352.5c1,0.8,0.6,1.9,0.6,2.9c0.2,6.5-1.4,12.9-1.2,19.5c0,1-0.5,1-1.2,0.7
		C554.6,367.9,555.1,360.2,555.7,352.5"/>
	<path class="st64" d="M513.3,667.4c0.3,0.1,1.1,0.3,0.6,0.5c-7,3.6-13.9,7.5-21.5,9.9c-0.5,0.1-0.7-0.2-1-0.6
		C499,674.5,506.1,670.9,513.3,667.4"/>
	<path class="st65" d="M454.8,685c0.6,0.9,1.8,0.1,2.5,1h-11.4c0.8-0.9,2-0.1,2.5-1C450.6,685,452.7,685,454.8,685"/>
	<path class="st66" d="M417.9,679.3c-2.8,0.2-8-2.1-8.6-3.9C412.2,676.8,415.1,678,417.9,679.3"/>
	<path class="st67" d="M529.5,657.4c-0.7,2-4.4,4.5-6.8,4.5C525,660.4,527.2,658.9,529.5,657.4"/>
	<path class="st68" d="M463.3,419.2c0.1,2.5-0.8,4.4-3.1,5.5C461,422.7,462.1,420.9,463.3,419.2"/>
	<path class="st69" d="M490.1,677.9c-1.5,2.3-3.6,2.6-6,2C486,679,488,678.3,490.1,677.9"/>
	<path class="st70" d="M472.9,406.1c0.4,2.1-0.9,2.7-2.6,3.1C471.1,408.2,472,407.2,472.9,406.1"/>
	<path class="st71" d="M450.3,564.7c1.7,0.3,2.5,1.2,2,3C451.5,566.8,450.6,565.9,450.3,564.7"/>
	<path class="st0" d="M346.8,572c-1.2-1.2-0.5-2.6-0.6-4C347,569.3,346.8,570.7,346.8,572"/>
	<path class="st72" d="M456,432.9c0.7,0.6,0.7,1.2,0.2,1.9c-0.4,0.4-0.7,0.2-1-0.2C455.5,434.1,455.8,433.5,456,432.9"/>
	<path class="st0" d="M346.2,567h-0.3h-0.3c0-1.3,0.1-2.6,0.1-4C346.3,564.3,346.2,565.7,346.2,567"/>
	<path class="st3" d="M534.5,634.7c0,1.1,0.4,2.3-0.4,3.3C534,636.9,534,635.8,534.5,634.7"/>
	<path class="st0" d="M346.9,496.2c0-1.1-0.5-2.4,0.5-3.3C347.5,494,347.4,495.1,346.9,496.2"/>
	<path class="st73" d="M798.4,535.2c0.9,0.8,0.6,1.9,0.6,2.9c-0.6,7.2-0.6,14.6-2.5,21.6c-1.3,4.8-3.7,8.9-7.4,12.2
		c-0.3-0.2-0.4-0.5-0.1-0.7c5.8-6.6,7.7-14.6,8.1-23.2C797.2,543.8,797.9,539.5,798.4,535.2"/>
	<path class="st74" d="M803.3,474.1c1.4,2.4,0.7,5.1,0.6,7.5c-0.4,6.8-1.2,13.5-1.8,20.3c-0.1,0.9,0.2,1.9-1.2,2.2
		C801.5,494.1,802.2,484.1,803.3,474.1"/>
	<path class="st73" d="M805.8,441.7c1.4,2.4,0.7,5.1,0.6,7.5c-0.4,6.8-1.2,13.5-1.8,20.3c-0.1,0.9,0.2,1.9-1.2,2.2
		C804,461.6,804.6,451.6,805.8,441.7"/>
	<path class="st68" d="M800.8,505.9c1.4,2.1,0.7,4.4,0.6,6.6c-0.4,6.8-1.2,13.6-1.8,20.5c-0.1,0.8-0.1,1.5-1.2,1
		C799.2,524.6,800,515.3,800.8,505.9"/>
	<path class="st69" d="M715.8,408.5c0.4,0.2,1.7,0.2,0.2,0.8c-3,1.1-6,2.2-9,3.2c-4.1,1.4-8.2,2.7-12.4,4c-0.6,0.2-1.2,0.2-1.7-0.4
		C700.5,413.3,708.1,410.8,715.8,408.5"/>
	<path class="st75" d="M811.9,378.6c-0.6,6.1-1.2,12.3-1.7,18.4c-0.1,0.8-0.1,1.5-1.2,1c0.4-5.8,0.9-11.5,1.3-17.3
		C810.4,379.7,810.5,378.6,811.9,378.6"/>
	<path class="st76" d="M788.9,571.3c0,0.2,0.1,0.5,0.1,0.7c-1.3,2.3-2.5,4.8-5.7,5C785.2,575.1,787.1,573.2,788.9,571.3"/>
	<path class="st77" d="M841.2,358.7c0.1,3-2,4.1-4.3,5C838.4,362,839.8,360.4,841.2,358.7"/>
	<path class="st78" d="M832.5,250.8c-0.5,2.3-2,3.7-4.3,4.3C829.4,253.5,830.8,251.9,832.5,250.8"/>
	<path class="st79" d="M823.2,373.6c-0.6,2.4-2.4,2.2-4.2,2C820.3,374.9,821.8,374.3,823.2,373.6"/>
	<path class="st80" d="M806.5,432.3c1.2,2,0.2,4.1,0.1,6.2c-0.1-1.5-0.2-3-0.2-4.5C806.4,433.5,806.4,432.9,806.5,432.3"/>
	<path class="st0" d="M687.4,368.4c0.1-2.4-0.6-4.8,0.5-7.1C688,363.6,688.1,366,687.4,368.4"/>
	<path class="st0" d="M686.8,378.3c0.1-2.4-0.7-4.8,0.5-7.1C687.4,373.6,687.4,376,686.8,378.3"/>
	<path class="st0" d="M716.7,467.5c0.2-2.2-0.7-4.4,0.5-6.5C717.2,463.2,717.4,465.4,716.7,467.5"/>
	<path class="st0" d="M715.5,483.7c0.1-2.2-0.7-4.4,0.5-6.5C716,479.4,716.1,481.6,715.5,483.7"/>
	<path class="st29" d="M711.1,540.5c0.2-2.2-0.7-4.4,0.5-6.5C711.7,536.2,711.8,538.4,711.1,540.5"/>
	<path class="st0" d="M686.2,387.1c0.1-2.2-0.7-4.4,0.5-6.5C686.8,382.8,686.9,384.9,686.2,387.1"/>
	<path class="st42" d="M708.6,572.9c0.2-2.2-0.7-4.5,0.6-6.5C709.1,568.6,709.3,570.8,708.6,572.9"/>
	<path class="st0" d="M710.5,548.6c0.1-2-0.6-4,0.5-5.9C711.1,544.7,711.1,546.7,710.5,548.6"/>
	<path class="st0" d="M714.9,491.2c0.1-2-0.6-4,0.5-5.9C715.5,487.3,715.5,489.3,714.9,491.2"/>
	<path class="st42" d="M719.2,434.5c0.1-2-0.6-4,0.5-5.9C719.8,430.6,719.9,432.6,719.2,434.5"/>
	<path class="st0" d="M714.2,499.4c0.1-2-0.6-4,0.5-5.9C714.8,495.4,714.9,497.4,714.2,499.4"/>
	<path class="st0" d="M708,581c0.1-2-0.6-4,0.5-5.9C708.6,577.1,708.5,579.1,708,581"/>
	<path class="st0" d="M713,516.2c0.1-2-0.6-4,0.5-5.9C713.5,512.3,713.6,514.3,713,516.2"/>
	<path class="st81" d="M707.4,589.2c0.2-2-0.6-4,0.5-5.9C707.9,585.2,708,587.2,707.4,589.2"/>
	<path class="st0" d="M712.4,524.3c0.1-2-0.6-4,0.5-5.9C713,520.4,712.9,522.4,712.4,524.3"/>
	<path class="st0" d="M706.7,597.3c0.1-2-0.7-4,0.5-5.9C707.3,593.3,707.4,595.3,706.7,597.3"/>
	<path class="st0" d="M718.6,442.6c0.1-2-0.6-4,0.5-5.9C719.2,438.7,719.2,440.7,718.6,442.6"/>
	<path class="st29" d="M711.7,532.4c0.1-2-0.6-4,0.5-5.9C712.3,528.5,712.3,530.5,711.7,532.4"/>
	<path class="st0" d="M709.9,556.7c0.1-2-0.6-4,0.5-5.9C710.4,552.8,710.5,554.8,709.9,556.7"/>
	<path class="st0" d="M709.2,564.2c0.1-1.8-0.7-3.6,0.5-5.3C709.8,560.7,709.8,562.5,709.2,564.2"/>
	<path class="st0" d="M713.6,507.5c0.1-1.8-0.6-3.6,0.5-5.3C714.2,504,714.2,505.7,713.6,507.5"/>
	<path class="st0" d="M716.1,475c0.1-1.8-0.6-3.6,0.5-5.3C716.7,471.5,716.7,473.3,716.1,475"/>
	<path class="st0" d="M830.8,180.9c1.5-1,3.1-0.4,4.6-0.5C833.9,181,832.4,181,830.8,180.9"/>
	<path class="st0" d="M853.6,180.5c1.6,0.1,3.2-0.6,4.6,0.5C856.6,181,855.1,181,853.6,180.5"/>
	<path class="st0" d="M730.4,296.1c0.1-1.2-0.5-2.4,0.6-3.4C731.1,293.8,731,295,730.4,296.1"/>
	<path class="st0" d="M825.8,181.6c1-1,2.2-0.5,3.4-0.5C828.1,181.6,827,181.6,825.8,181.6"/>
	<path class="st0" d="M731.1,292.2c0-1.1-0.5-2.4,0.5-3.3C731.6,290,731.6,291.2,731.1,292.2"/>
	<path class="st0" d="M729.8,301c0.1-1.2-0.5-2.4,0.5-3.4C730.4,298.8,730.4,300,729.8,301"/>
	<path class="st82" d="M661.2,476c0.9,0.7,0.6,1.7,0.6,2.6c-0.3,7.7-1,15.4-1.7,23.1c-0.6,6.4-0.9,12.8-1.4,19.1
		c-0.8,9.9-1.6,19.7-2.4,29.6c-0.5,5.7-0.9,11.3-1.3,17c-0.6,8.8-1.3,17.6-2.3,26.5c-0.1-1.1-0.2-2.2-0.3-3.3c0.9-13,1.8-26,2.8-39
		c1.8-23.9,3.7-47.7,5.5-71.6C660.8,478.6,661,477.3,661.2,476"/>
	<path class="st83" d="M665.5,420.5c1.4,2.1,0.8,4.5,0.6,6.6c-1.6,11.8-1.6,23.8-3,35.7c-0.5,4-0.6,8-1.4,12c0-1.7,0-3.4,0-5.1
		C662.7,453.2,663.9,436.8,665.5,420.5"/>
	<path class="st74" d="M668.5,381.1c1.5,2.3,0.8,4.8,0.6,7.2c-0.4,6.6-1.1,13.3-1.8,19.9c-0.1,0.6,0.8,2.2-1.1,1.7
		C667,400.3,667.8,390.7,668.5,381.1"/>
	<path class="st84" d="M641.2,620.6c-1,3.1-5.8,6.6-8.2,6.1C635.9,624.9,638.6,622.9,641.2,620.6"/>
	<path class="st85" d="M649.3,606.9c0.5,2.2-0.4,4.4-2,4.8C648,610.1,648.6,608.5,649.3,606.9"/>
	<path class="st23" d="M573.9,487.4c0.1-2.2-0.7-4.4,0.5-6.5C574.5,483.2,574.6,485.3,573.9,487.4"/>
	<path class="st0" d="M576.4,455c0.1-2.2-0.7-4.4,0.5-6.5C577,450.7,577.1,452.9,576.4,455"/>
	<path class="st0" d="M575.7,458.5c0-0.5,0.1-1,0.6-1.2c0.1,2.2,0,4.3-0.5,6.5C575.8,462,575.7,460.3,575.7,458.5"/>
	<path class="st0" d="M562.7,634.6l-0.1-4.5c0.1-0.7-0.1-1.4,0.6-1.9C563.3,630.3,563.2,632.4,562.7,634.6"/>
	<path class="st0" d="M577.7,438.8c0.1-2-0.6-4,0.5-5.8C578.3,434.9,578.3,436.9,577.7,438.8"/>
	<path class="st0" d="M577,446.9c0.1-2-0.6-4,0.5-5.9C577.6,443,577.6,445,577,446.9"/>
	<path class="st0" d="M573.3,495.6c0.1-2-0.6-4,0.5-5.8C573.9,491.7,573.9,493.6,573.3,495.6"/>
	<path class="st0" d="M566.4,585.3c0.1-1.9-0.6-4,0.5-5.8C567,581.5,567,583.4,566.4,585.3"/>
	<path class="st0" d="M567.7,568.5c0-2,0-3.9-0.1-5.9c0.2,0,0.4,0,0.6,0C568.3,564.6,568.3,566.6,567.7,568.5"/>
	<path class="st0" d="M575.2,471.2c0.1-2-0.6-4,0.5-5.8C575.7,467.4,575.8,469.3,575.2,471.2"/>
	<path class="st23" d="M574.5,479.3c0.1-2-0.6-4,0.5-5.8C575.1,475.5,575.1,477.4,574.5,479.3"/>
	<path class="st0" d="M562.1,642.2c0.2-1.8-0.6-3.6,0.5-5.3C562.6,638.7,562.7,640.5,562.1,642.2"/>
	<path class="st44" d="M567.1,576.7c0.1-1.8-0.6-3.6,0.5-5.2C567.7,573.2,567.6,574.9,567.1,576.7"/>
	<path class="st13" d="M425.3,246.6c0.1,0.9,0.1,1.7-1,1.7C424,247.2,425.3,247.2,425.3,246.6"/>
</g>
</svg>
